<?xml version="1.0" encoding="UTF-8" standalone="no"?>
<svg
   version="1.1"
   id="Layer_1"
   x="0px"
   y="0px"
   width="1531.1975"
   viewBox="0 0 1531.1975 983.1236"
   enable-background="new 0 0 1800 1800"
   xml:space="preserve"
   sodipodi:docname="morzkulc.svg"
   inkscape:version="1.4.3 (0d15f75042, 2025-12-25)"
   height="983.1236"
   xmlns:inkscape="http://www.inkscape.org/namespaces/inkscape"
   xmlns:sodipodi="http://sodipodi.sourceforge.net/DTD/sodipodi-0.dtd"
   xmlns="http://www.w3.org/2000/svg"
   xmlns:svg="http://www.w3.org/2000/svg"><defs
   id="defs113" /><sodipodi:namedview
   id="namedview113"
   pagecolor="#505050"
   bordercolor="#eeeeee"
   borderopacity="1"
   inkscape:showpageshadow="0"
   inkscape:pageopacity="0"
   inkscape:pagecheckerboard="0"
   inkscape:deskcolor="#505050"
   inkscape:zoom="0.31426968"
   inkscape:cx="602.98531"
   inkscape:cy="477.29708"
   inkscape:window-width="1920"
   inkscape:window-height="1011"
   inkscape:window-x="0"
   inkscape:window-y="0"
   inkscape:window-maximized="1"
   inkscape:current-layer="Layer_1" />

<path
   fill="#fcf706"
   opacity="1"
   stroke="none"
   d="m 102.43921,980.36136 c -4.063842,-3.4894 -9.535562,-6.2079 -11.942872,-10.6043 -9.40091,-17.1688 -17.83209,-34.8685 -26.71907,-53.106 -4.45977,-20.8413 -9.07364,-40.898 -13.08244,-61.075 -1.97322,-9.9315 -3.56653,-19.7991 -10.7964,-27.5791 -8.33785,-10.339 -16.67569,-20.678 -25.19306,-31.609 -2.05989,-2.6488 -3.87661,-4.7685 -5.8320402,-6.7513 -7.28249,-7.3845 -7.24898,-7.9265 1.1327202,-13.7159 0.52704,-0.364 0.92007,-0.9221 1.37547,-1.3898 18.3132,-9.6827 36.55054,-19.5123 54.95947,-29.0095 21.2566,-10.9662 42.711872,-21.5472 63.970682,-32.5093 4.84408,-2.4978 9.23581,-5.8729 14.48745,-9.0254 2.06482,-1.0171 3.56379,-1.7369 4.87723,-2.7077 8.76422,-6.4778 17.56442,-12.9109 26.20487,-19.5514 8.48422,-6.5205 16.79303,-13.2692 25.1788,-19.9177 24.14813,-18.1734 48.14459,-36.5527 72.47452,-54.47929 58.68863,-43.24255 117.54464,-86.25781 176.31137,-129.39453 48.17261,-35.36029 96.67016,-70.29169 144.34832,-106.30719 33.83747,-25.56037 66.5611,-52.59601 99.73993,-79.02588 2.19892,-1.75153 3.88153,-4.15045 6.07764,-5.90637 7.73999,-6.18848 7.87396,-13.90644 5.23828,-22.5622 -3.43237,-11.27246 -10.69159,-18.8836 -21.17114,-23.85839 -6.46136,-3.06721 -12.90204,-6.22699 -19.10529,-9.77643 -7.815,-4.47168 -13.83276,-10.85413 -18.15185,-19.60779 -3.93207,-10.84717 -4.20893,-21.30145 -3.15717,-31.88587 3.37293,-17.07873 14.28632,-29.15313 27.37568,-39.20568 22.88928,-17.57886 48.3944,-29.69236 77.24176,-33.9448 2.13684,-0.31503 4.30334,-0.77176 6.43939,-0.69516 20.48718,0.73453 34.46148,-10.054654 45.73712,-25.673004 14.1029,-19.53455 24.49512,-41.08804 34.54413,-62.86582 2.52502,-5.47195 6.45459,-10.2957997 10.42499,-15.5440297 62.0157,-0.12796003 123.3452,-0.18525003 184.6739,-0.006 4.0984,0.012 8.1916,1.82025 12.2872,2.79306 3.8944,3.7016 5.3776,8.3430197 4.8717,13.5537797 -3.709,38.19909 -20.0707,70.08001 -48.9029,95.234254 -10.7413,9.37118 -23.7701,14.37967 -38.3832,14.67819 -19.0727,0.38959 -37.8856,2.53479 -55.6479,10.13934 -16.1179,6.90058 -28.017,17.6933 -32.3005,35.46058 -1.7456,7.24041 -1.8874,7.23632 5.1487,9.36773 1.9024,0.57617 3.8734,0.92542 6.4218,1.81226 9.4927,1.22784 18.374,2.66083 27.26,2.68988 21.5706,0.0706 43.148,-0.3288 64.7135,-0.88739 18.0539,-0.46759 36.0949,-1.42865 54.1416,-2.17121 0.2583,0.0188 0.5165,0.0376 1.5319,0.14667 12.6588,-0.56128 24.5547,-1.58838 36.4631,-1.76257 12.7785,-0.18689 25.5727,0.76422 38.3527,0.60943 16.6283,-0.20141 32.5804,3.02979 48.3822,7.78327 3.5691,1.07373 7.6764,1.77899 11.264,1.13641 21.1438,-3.78729 42.3266,-7.50378 63.251,-12.31073 11.7775,-2.70563 23.0841,-7.45947 34.6029,-11.29065 7.5283,-2.36236 15.0568,-4.72473 22.5851,-7.08703 0.3928,0.41992 0.7856,0.8399 1.1785,1.25982 -1.4103,2.40522 -2.4333,5.17151 -4.2886,7.16162 -30.6471,32.87519 -62.9468,63.98096 -98.6826,91.3628 -6.5537,5.02167 -13.2049,9.91632 -20.3546,15.00396 -2.0062,0.85144 -3.5242,1.47437 -4.9224,2.29993 -13.3546,7.88452 -26.6372,15.89288 -40.0567,23.6648 -4.8469,2.80713 -10.8934,4.11358 -14.8508,7.77246 -9.5864,8.86322 -18.2688,18.70459 -27.2934,28.17267 -0.1806,0.18945 -0.091,0.63616 -0.1276,0.96289 -14.4166,15.27319 -28.1393,31.09124 -39.3145,48.97992 -6.5931,10.55371 -11.415,21.7492 -14.005,33.96557 -2.743,12.93744 1.1639,24.84015 5.7853,36.40924 8.0542,20.1626 21.4729,36.68628 37.3584,51.1966 24.9412,22.78216 52.6456,41.75433 82.3598,57.68475 17.432,9.34576 35.3448,17.80493 53.138,26.46466 52.3753,25.4904 105.0617,50.3584 157.0967,76.5236 27.776,13.9668 54.9335,29.3501 79.8107,48.2625 30.3775,23.0943 57.5794,49.1558 78.8575,81.2704 16.8471,25.4271 16.9801,51.6917 4.8012,77.9086 -10.9882,23.6534 -24.5827,46.0934 -36.944,69.1134 -3.0667,5.7113 -5.8088,11.5967 -9.1505,17.6565 -0.8219,1.5101 -1.1935,2.7659 -1.5652,4.0215 0,0 -0.072,-0.111 -0.3359,0.026 -0.3733,0.7598 -0.4826,1.3823 -0.5918,2.005 0,0 -0.1015,-0.2859 -0.3683,-0.07 -0.4159,0.8309 -0.5651,1.4459 -0.7143,2.061 2e-4,0 -0.1045,-0.1317 -0.3632,-0.017 -0.7221,1.0995 -1.1851,2.0845 -1.6481,3.0693 0,0 -0.088,-0.1844 -0.3038,-0.069 -0.3086,0.4488 -0.4012,0.7828 -0.4938,1.1167 0,0 -0.037,0.029 -0.408,0.068 -3.6905,1.2201 -7.0012,3.3949 -10.3318,3.4257 -30.6402,0.2838 -61.284,0.1821 -91.9266,0.2507 -1.9337,0 -3.8663,0.4935 -5.7994,0.7572 -16.3042,0.1149 -32.6083,0.3295 -48.9125,0.3259 -50.0924,-0.011 -100.185,-0.1069 -150.2774,-0.159 -1.6601,0 -3.3203,0.1124 -4.9804,0.1726 0.2064,0.693 0.4129,1.386 0.9741,1.5967 6.38,-0.162 12.4136,0.2655 18.3336,-0.756 -0.03,-0.4406 -0.06,-0.8811 -0.09,-1.3217 -117.7334,0 -235.467,0 -353.20041,0 -0.0158,0.5215 -0.0316,1.0431 -0.0473,1.5646 3.65961,0 7.31922,0 10.97883,0 0.64526,0.2074 1.29058,0.4146 1.93591,0.6218 0.11169,-0.4566 0.22345,-0.9134 0.3352,-1.3701 -1.24139,-0.1676 -2.48272,-0.4802 -3.72424,-0.4814 -33.81104,-0.034 -67.62207,-0.041 -101.43311,-0.028 -1.13842,4e-4 -2.27667,0.2499 -3.41503,0.3834 0.39636,0.6681 0.79272,1.3363 1.51202,1.459 15.63245,1.0419 60.74945,0 63.25622,-2.1969 -70.29943,0 -140.36743,0 -210.43536,0 -0.0131,0.5385 -0.0261,1.0768 -0.0392,1.6152 8.62475,0 17.24951,0 25.87426,0 0.64588,0.2915 1.29169,0.5829 1.93757,0.8744 0.15753,-0.5283 0.31506,-1.0566 0.47265,-1.5849 -1.46313,-0.1956 -2.92615,-0.5602 -4.3894,-0.5614 -26.89051,-0.022 -53.78107,0 -80.67157,0.026 -1.14466,0 -2.289,0.198 -3.43353,0.3037 0.34173,0.6768 0.68347,1.3533 1.35644,1.502 4.96051,-0.5281 9.5899,-0.5281 14.21936,-0.5281 -0.0257,-0.7506 -0.0513,-1.5012 -0.077,-2.2518 -1.91126,0 -3.82252,10e-5 -5.73377,0 -141.71948,0 -283.4389,-0.011 -425.15836,0 -1.47279,3e-4 -2.94555,0.2876 -4.41832,0.441 M 1121.2857,217.12651 c -1.8059,1.74688 -3.6118,3.49377 -5.7332,5.90149 -16.4598,13.94909 -32.9255,27.89099 -49.3743,41.85284 -3.6893,3.13147 -7.3189,6.33307 -10.9758,9.50238 0.3514,0.42401 0.703,0.84796 1.0545,1.27197 32.8255,-23.08526 65.6509,-46.17053 98.4763,-69.25573 -0.1877,-0.42627 -0.3753,-0.85254 -0.563,-1.27875 -6.5778,1.60388 -13.1556,3.20776 -20.4776,4.72046 -4.902,0.80987 -9.4003,2.25665 -11.6093,7.50183 0,0 -0.1534,0.0328 -0.7976,-0.21649 M 266.80208,729.02196 c 0,0 0.0733,0.093 -0.65951,-0.016 -6.7793,3.7845 -13.55856,7.5691 -20.9144,11.8437 -1.27884,0.687 -2.56024,1.3693 -3.83624,2.0617 -48.50501,26.3199 -97.02445,52.6134 -145.498642,78.9901 -7.58512,4.1273 -15.03745,8.5157 -22.36466,13.0829 -1.20068,0.7484 -2.3291,3.307 -1.96565,4.6002 2.67976,9.5348 5.74681,18.9607 8.82805,28.8579 1.94504,-1.0667 3.98681,-2.0919 5.93635,-3.2698 21.182132,-12.7982 42.681342,-25.1084 63.443852,-38.5557 31.47974,-20.3884 63.10373,-40.6662 93.40772,-62.7204 21.97934,-15.9959 41.93045,-34.7805 62.74993,-52.3644 1.48755,-1.2565 2.67865,-2.864 4.00754,-4.3083 -0.34625,-0.4259 -0.69253,-0.8517 -1.03882,-1.2776 -7.72119,4.3823 -15.44238,8.7647 -23.73937,12.9604 -6.11631,3.4111 -12.23261,6.8223 -18.35615,10.1155 M 654.66024,492.78355 c -0.3927,5.7414 -0.31439,11.56726 -1.32391,17.19806 -0.84003,4.6853 -2.95789,9.14136 -5.18457,13.93903 -1.74018,1.24462 -3.36951,2.69439 -5.23688,3.70367 -39.20447,21.19031 -78.44611,42.31171 -117.65937,63.48584 -50.05151,27.02661 -99.91967,54.39961 -150.22033,80.95401 -16.17697,8.5401 -28.85977,20.0545 -40.09711,34.283 -11.10818,14.0651 -23.16913,27.6003 -36.233,39.8531 -29.64063,27.8005 -62.09952,52.2393 -96.87192,73.1968 -38.69961,23.3245 -78.25503,45.2323 -117.553852,67.5528 -3.0309,1.7215 -2.92596,3.1307 -2.12457,5.8514 5.05475,17.1603 12.8055,33.1279 20.724292,49.0978 4.67863,9.4353 10.34683,13.5669 21.73624,13.558 438.61938,-0.3417 877.23904,-0.2835 1315.85874,-0.2898 3.1621,0 6.4194,0.2685 9.4509,-0.4047 1.8409,-0.4089 3.9812,-2.0435 4.8736,-3.7201 4.7644,-8.9499 8.9538,-18.2075 13.7609,-27.1331 9.1416,-16.9737 18.9652,-33.5898 27.7781,-50.7286 12.0931,-23.5187 11.8375,-45.7666 -4.9124,-68.1699 -18.0626,-24.1588 -39.3962,-44.5955 -63.1007,-62.7066 -30.3241,-23.1688 -63.3122,-42.1915 -97.5348,-58.9135 -44.9751,-21.976 -90.2913,-43.2547 -135.4863,-64.7796 -46.7217,-22.25199 -93.1556,-44.82486 -132.7898,-79.14011 -21.0751,-18.24683 -39.9653,-37.92584 -52.7937,-62.95392 -13.3627,-26.07092 -17.3973,-52.75006 -5.0707,-80.26733 9.1606,-20.44922 21.1942,-39.15265 36.4115,-55.70947 6.1442,-6.68494 12.2832,-13.37445 19.0911,-20.78772 -2.7997,0 -4.707,-0.14466 -6.5869,0.0223 -19.4849,1.73016 -37.9242,7.15637 -55.1516,16.36578 -34.9107,18.66229 -69.7014,37.54871 -104.567,56.29535 -29.4431,15.83099 -58.92205,31.59527 -89.14226,47.36181 -2.71155,0.92627 -5.42303,1.85254 -8.89075,3.03711 0.97125,-10.92242 1.85272,-20.83459 3.14398,-31.34558 0.72053,-0.63043 1.35749,-1.40881 2.17377,-1.86956 18.77283,-10.59748 37.4173,-21.43458 56.38676,-31.66901 32.7893,-17.69049 65.6174,-35.32385 98.7414,-52.37464 27.4905,-14.15094 52.9068,-31.0736 75.9223,-51.75482 15.076,-13.54712 30.5157,-26.71167 46.1859,-39.56805 11.1152,-9.11939 22.8873,-17.43811 35.238,-26.77326 -2.2131,-0.27252 -3.5731,-0.59497 -4.9303,-0.58386 -19.4835,0.15943 -38.9809,-0.0437 -58.4463,0.64997 -31.719,1.1303 -63.4059,3.21655 -95.1282,4.17724 -16.5736,0.50195 -33.1988,-0.38934 -49.7918,-0.92248 -14.4416,-0.46399 -28.6435,-2.37555 -41.8916,-8.73499 -13.66641,-6.56 -18.38754,-14.90625 -16.77059,-30.03357 1.7583,-16.44946 8.88619,-30.15063 21.31659,-41.08044 1.803,-1.58533 3.617,-3.15808 5.4259,-4.7367 -0.2464,-0.42724 -0.4928,-0.85449 -0.7392,-1.28174 -15.8538,0.69562 -31.70764,1.39124 -48.35748,1.87372 -8.78931,0.0185 -17.57984,-0.0425 -26.36737,0.0928 -3.75067,0.0577 -7.49506,0.52496 -12.10748,0.95477 -1.99378,0.10724 -3.98743,0.2182 -5.98139,0.32123 -26.33191,1.35937 -51.97162,5.16217 -75.06433,19.3537 -13.86639,8.52148 -27.12549,17.49279 -34.75336,32.56262 -5.53601,10.93713 -2.98724,20.84705 7.42926,27.63647 4.42536,2.8844 9.21997,5.24146 13.98029,7.56458 9.27942,4.52814 18.63251,8.89111 25.7998,16.67315 10.23133,11.10889 13.46473,24.90876 15.27521,39.3061 0.81232,6.45947 -0.62671,12.32794 -4.591,17.32965 -4.12006,5.19836 -8.51618,10.2182 -13.1615,14.95318 -23.92896,24.39051 -50.60309,45.57868 -77.75855,66.18738 -45.47888,34.51435 -90.90527,69.09876 -136.50988,103.44635 -21.71686,16.35626 -43.72767,32.32544 -65.72809,48.30097 -15.9975,11.61657 -32.21863,22.9248 -48.29822,34.42895 -13.5224,9.67456 -27.04715,19.34802 -40.4577,29.17639 -17.05817,12.50171 -33.96204,25.21399 -51.00958,37.7303 -11.20942,8.23 -22.56821,16.2563 -33.83561,24.4075 -9.98071,7.2206 -19.92871,14.4862 -29.88873,21.7354 -4.78772,3.4846 -9.57001,6.9767 -14.35474,10.4654 1.44458,0.4727 2.56601,0.3094 3.65122,0.013 8.2265,-2.2453 16.40976,-4.6599 24.67651,-6.744 10.51325,-2.6505 21.03082,-5.3501 31.65979,-7.4571 11.30377,-2.2409 22.73828,-5.3171 34.1189,-5.3304 17.66058,-0.021 33.44272,-5.064 48.59146,-13.151 51.29056,-27.3807 102.52811,-54.86085 153.77103,-82.33088 35.87249,-19.23041 71.69,-38.56378 107.59839,-57.72699 10.82141,-5.77509 21.86468,-11.13434 32.73113,-16.13525 0.32294,0.42737 0.64588,0.85479 0.95246,2.21191 m 591.98806,-307.1781 c -14.4271,4.9837 -28.9182,9.79254 -43.2553,15.02313 -7.4101,2.70355 -15.2766,5.08698 -21.6803,9.45661 -26.4402,18.04187 -52.3946,36.79553 -78.5385,55.27227 -11.2917,7.98017 -22.6097,15.92334 -33.9157,23.88331 0.2966,0.50524 0.5933,1.01055 0.8899,1.5158 8.4004,-4.38885 16.8008,-8.77777 25.8022,-12.93109 1.2624,-0.35119 2.6008,-0.53778 3.7751,-1.07971 9.9278,-4.58197 19.9608,-8.96521 29.6899,-13.94049 7.6287,-3.90119 14.8705,-8.55896 22.8131,-13.30524 17.3927,-11.16742 34.8472,-22.24029 52.1594,-33.53125 14.8277,-9.67059 29.4926,-19.59094 44.8925,-29.68091 0.3896,-0.53619 0.7794,-1.07244 1.1691,-1.60858 -1.0237,0.30072 -2.0474,0.6015 -3.8014,0.92615 m -339.5,-164.735814 c -11.1413,3e-5 -22.2866,-0.19702 -33.4229,0.0408 -23.78123,0.50788 -19.30582,-4.51523 -31.73173,19.72217 -10.31506,20.12012 -20.19378,40.39215 -35.24597,57.57904 -3.19281,3.645544 -6.05847,7.577644 -9.68335,12.144384 3.19477,0.58987 5.11792,1.27133 7.03089,1.24377 10.31256,-0.14837 20.62298,-0.45861 30.93347,-0.73898 36.60729,-0.99539 73.20999,-2.4834 109.82319,-2.81073 19.902,-0.17792 36.2795,-6.74142 49.6381,-21.266914 14.1688,-15.40646 24.5821,-32.94506 29.3917,-53.43673 3.2904,-14.01901 2.2435,-12.35556 -9.3378,-12.41284 -35.4637,-0.17545 -70.9292,-0.0638 -107.3956,-0.064 M 209.03188,707.42596 c -61.04602,20.3333 -118.507932,48.6525 -176.371062,78.665 7.04791,6.9278 13.40686,13.4489 20.15318,19.5409 1.11134,1.0036 4.17867,0.7305 5.89702,3e-4 4.57437,-1.9439 8.91646,-4.4392 13.33241,-6.7507 38.286092,-20.0414 76.511642,-40.1995 114.869622,-60.1023 29.50622,-15.3099 59.18283,-30.2915 88.76461,-45.4562 2.19406,-1.1247 4.23441,-2.5494 6.34623,-3.8347 -0.17939,-0.3885 -0.35877,-0.7772 -0.53818,-1.1659 -23.89642,6.2898 -47.79288,12.5796 -72.45383,19.1036 M 1052.6837,278.60942 c -0.1515,-0.55921 -0.303,-1.11847 -0.4545,-1.67774 -1.2703,0.76483 -2.5405,1.52967 -3.8108,2.29456 0.167,0.31732 0.3341,0.6347 0.5011,0.95209 0.9708,-0.34339 1.9415,-0.68677 3.7642,-1.56891 m 1.676,-3.94013 c -0.4921,0.65046 -0.9843,1.30091 -1.4764,1.95136 0.5245,0.28033 1.0492,0.56067 1.5737,0.841 0.3671,-1.07245 0.7341,-2.1449 -0.097,-2.79236 z"
   id="path2" />
<path
   fill="#dce274"
   opacity="1"
   stroke="none"
   d="m 102.89976,980.53626 c 1.01222,-0.3283 2.48498,-0.6156 3.95777,-0.6159 141.71946,-0.016 283.43888,-0.01 425.15836,0 1.91125,1e-4 3.82251,0 5.73377,0 0.0256,0.7506 0.0513,1.5012 0.077,2.2518 -4.62946,0 -9.25885,0 -13.90308,2e-4 -3.11309,-0.4311 -6.21069,-1.233 -9.30969,-1.2382 -48.97723,-0.083 -97.95477,-0.066 -146.93219,-0.066 -73.62485,-4e-4 -147.24969,0.012 -220.87454,0 -14.48227,0 -28.96454,-0.098 -43.90736,-0.3251 z"
   id="path3" />
<path
   fill="#dce274"
   opacity="1"
   stroke="none"
   d="m 1263.1756,168.0518 c -11.135,3.83368 -22.4416,8.58752 -34.2191,11.29315 -20.9244,4.80695 -42.1072,8.52344 -63.251,12.31073 -3.5876,0.64258 -7.6949,-0.0627 -11.264,-1.13641 -15.8018,-4.75348 -31.7539,-7.98468 -48.3822,-7.78327 -12.78,0.15479 -25.5742,-0.79632 -38.3527,-0.60943 -11.9084,0.17419 -23.8043,1.20129 -36.0749,1.75073 1.6914,-0.57013 3.7494,-1.43133 5.8133,-1.44629 27.2876,-0.19787 54.5866,-0.7406 81.8589,-0.13281 9.4863,0.21136 19.1741,2.49603 28.2877,5.36523 10.1027,3.18061 19.7178,2.75061 29.8922,1.01282 28.923,-4.93988 57.3433,-11.80206 85.6918,-20.62445 z"
   id="path4" />
<path
   fill="#dce274"
   opacity="1"
   stroke="none"
   d="m 835.29561,981.76666 c -4.48681,0.3654 -8.14642,0.3654 -11.80603,0.3654 0.0158,-0.5215 0.0316,-1.0431 0.0473,-1.5646 117.73341,0 235.46702,0 353.20042,0 0.03,0.4406 0.06,0.8811 0.09,1.3217 -5.92,1.0215 -11.9536,0.594 -17.9939,0.2739 -2.9496,-0.4302 -5.8839,-1.2349 -8.8187,-1.2367 -102.4757,-0.063 -204.95131,-0.054 -307.42703,-0.027 -2.15496,6e-4 -4.30975,0.3274 -7.29187,0.8673 z"
   id="path5" />
<path
   fill="#dce274"
   opacity="1"
   stroke="none"
   d="m 609.16073,981.76036 c -9.45038,0.3752 -18.07514,0.3752 -26.69989,0.3752 0.0131,-0.5384 0.0261,-1.0767 0.0392,-1.6152 70.06793,0 140.13593,0 210.43536,0 -2.50677,2.1952 -47.62377,3.2388 -62.9483,1.6517 -2.77405,-0.4334 -5.53229,-1.2374 -8.29248,-1.2442 -35.08514,-0.087 -70.17059,-0.068 -105.25592,-0.038 -2.15088,0 -4.30151,0.323 -7.27795,0.8709 z"
   id="path6" />
<path
   fill="#dce274"
   opacity="1"
   stroke="none"
   d="m 1077.0326,338.50706 c -0.2498,-0.20557 -0.3393,-0.65228 -0.1587,-0.84173 9.0246,-9.46808 17.707,-19.30945 27.2934,-28.17267 3.9574,-3.65888 10.0039,-4.96533 14.8508,-7.77246 13.4195,-7.77192 26.7021,-15.78028 40.0567,-23.6648 1.3982,-0.82556 2.9162,-1.44849 4.6874,-2.08069 -14.6601,9.2768 -29.3644,18.94416 -44.6996,27.47754 -8.803,4.89832 -17.1814,9.92322 -24.1065,17.33124 -5.6688,6.06409 -11.7429,11.74927 -17.9235,17.72357 z"
   id="path7" />
<path
   fill="#dce274"
   opacity="1"
   stroke="none"
   d="m 1042.2315,3.5679663 c -3.9383,-0.67572 -8.0315,-2.48397 -12.1299,-2.49597 C 968.7729,0.89227627 907.4434,0.94956627 845.71957,0.85440627 c 1.72918,-0.34494 3.85278,-0.80865 5.97674,-0.81033 59.02459,-0.0466 118.04929,-0.0523 177.07389,-0.0354 2.8214,7.9e-4 5.7058,-0.0384 8.4416,0.52258 1.7352,0.35584 3.2493,1.78943003 5.0197,3.03674003 z"
   id="path8" />
<path
   fill="#dce274"
   opacity="1"
   stroke="none"
   d="m 1029.4493,183.40318 c -17.7844,1.08185 -35.8254,2.04291 -53.8793,2.5105 -21.5655,0.55859 -43.1429,0.95794 -64.7135,0.88739 -8.886,-0.029 -17.7673,-1.46204 -26.9175,-2.53687 43.776,3.93097 87.7804,1.01337 131.7912,-0.96271 4.4801,-0.20117 8.9708,-0.16406 13.7191,0.10169 z"
   id="path9" />
<path
   fill="#dce274"
   opacity="1"
   stroke="none"
   d="m 39.958898,828.32236 c 7.1694,7.4546 8.76271,17.3222 10.73593,27.2537 4.0088,20.177 8.62267,40.2337 12.95457,60.7081 -6.47528,-13.4392 -8.94995,-28.3198 -11.71507,-43.1111 -0.87741,-4.6936 -1.65544,-9.4347 -2.0197,-14.1892 -0.83868,-10.947 -3.61122,-21.197 -9.95573,-30.6615 z"
   id="path10" />
<path
   fill="#dce274"
   opacity="1"
   stroke="none"
   d="m 1362.1493,980.78006 c 1.4735,-0.3348 3.4061,-0.824 5.3398,-0.8283 30.6426,-0.069 61.2864,0.033 91.9266,-0.2507 3.3306,-0.031 6.6413,-2.2056 10.3249,-3.4031 -1.505,4.2883 -5.3014,4.5238 -9.2134,4.5248 -32.6394,0.01 -65.2789,0.019 -98.3779,-0.043 z"
   id="path11" />
<path
   fill="#dce274"
   opacity="1"
   stroke="none"
   d="m 200.8113,661.77416 c -8.13705,6.6843 -16.44586,13.433 -24.93008,19.9535 -8.64045,6.6405 -17.44065,13.0736 -26.20487,19.5514 -1.31344,0.9708 -2.81241,1.6906 -4.57074,2.5434 11.2063,-8.8175 22.72577,-17.6944 34.32144,-26.4705 6.98377,-5.2857 14.08637,-10.4144 21.38425,-15.5778 z"
   id="path12" />
<path
   fill="#dce274"
   opacity="1"
   stroke="none"
   d="m 11.069748,774.51146 c -0.14363,0.4872 -0.53666,1.0453 -1.0637,1.4093 -8.3817002,5.7894 -8.4152102,6.3314 -1.1327202,13.7159 1.9554302,1.9828 3.7721502,4.1025 5.6223602,6.4563 -4.30217,-3.5985 -8.5302202,-7.5438 -12.8648902,-11.3684 -2.14087002,-1.889 -2.24084002,-3.7138 0.0987,-5.2099 2.8959,-1.8518 6.00912,-3.3638 9.3402202,-5.0032 z"
   id="path13" />
<path
   fill="#dce274"
   opacity="1"
   stroke="none"
   d="m 643.43966,179.31041 c -0.82679,10.28003 -0.54993,20.73431 3.28924,31.24975 -6.05169,-9.49255 -4.98346,-20.19635 -3.28924,-31.24975 z"
   id="path14" />
<path
   fill="#dce274"
   opacity="1"
   stroke="none"
   d="m 1475.2801,967.89816 c 0.066,-1.0683 0.4379,-2.3241 1.0842,-3.5748 -0.076,1.1324 -0.4277,2.26 -1.0842,3.5748 z"
   id="path15" />
<path
   fill="#dce274"
   opacity="1"
   stroke="none"
   d="m 1471.2747,975.06236 c 0.1414,-0.8873 0.6044,-1.8723 1.399,-2.9293 -0.1382,0.8957 -0.6078,1.8637 -1.399,2.9293 z"
   id="path16" />
<path
   fill="#dce274"
   opacity="1"
   stroke="none"
   d="m 1474.3302,969.96536 c -0.174,-0.4715 -0.065,-1.094 0.3681,-1.8252 0.1875,0.4856 0.051,1.0798 -0.3681,1.8252 z"
   id="path17" />
<path
   fill="#dce274"
   opacity="1"
   stroke="none"
   d="m 1473.2614,971.98396 c -0.1478,-0.4914 0,-1.1064 0.4818,-1.7998 0.1593,0.5066 -0.013,1.0913 -0.4818,1.7998 z"
   id="path18" />
<path
   fill="#dce274"
   opacity="1"
   stroke="none"
   d="m 1470.4063,976.13086 c -0.1582,-0.2576 -0.066,-0.5916 0.3098,-0.9633 0.1691,0.2705 0.055,0.5788 -0.3098,0.9633 z"
   id="path19" />
<path
   fill="#017dc6"
   opacity="1"
   stroke="none"
   d="m 805.46114,439.8253 c 29.46301,-15.79395 58.94196,-31.55823 88.38506,-47.38922 34.8656,-18.74664 69.6563,-37.63306 104.567,-56.29535 17.2274,-9.20941 35.6667,-14.63562 55.1516,-16.36578 1.8799,-0.167 3.7872,-0.0223 6.5869,-0.0223 -6.8079,7.41327 -12.9469,14.10278 -19.0911,20.78772 -15.2173,16.55682 -27.2509,35.26025 -36.4115,55.70947 -12.3266,27.51727 -8.292,54.19641 5.0707,80.26733 12.8284,25.02808 31.7186,44.70709 52.7937,62.95392 39.6342,34.31525 86.0681,56.88812 132.7898,79.14011 45.195,21.5249 90.5112,42.8036 135.4863,64.7796 34.2226,16.722 67.2107,35.7447 97.5348,58.9135 23.7045,18.1111 45.0381,38.5478 63.1007,62.7066 16.7499,22.4033 17.0055,44.6512 4.9124,68.1699 -8.8129,17.1388 -18.6365,33.7549 -27.7781,50.7286 -4.8071,8.9256 -8.9965,18.1832 -13.7609,27.1331 -0.8924,1.6766 -3.0327,3.3112 -4.8736,3.7201 -3.0315,0.6732 -6.2888,0.4047 -9.4509,0.4047 -438.6197,0.01 -877.23936,-0.052 -1315.85874,0.2898 -11.38941,0.01 -17.05761,-4.1227 -21.73624,-13.558 -7.918792,-15.9699 -15.669542,-31.9375 -20.724292,-49.0978 -0.80139,-2.7207 -0.90633,-4.1299 2.12457,-5.8514 39.298822,-22.3205 78.854242,-44.2283 117.553852,-67.5528 34.7724,-20.9575 67.23129,-45.3963 96.87192,-73.1968 13.06387,-12.2528 25.12482,-25.788 36.233,-39.8531 11.23734,-14.2285 23.92014,-25.7429 40.09711,-34.283 50.30066,-26.5544 100.16882,-53.9274 150.22033,-80.95401 39.21326,-21.17413 78.4549,-42.29553 117.65937,-63.48584 1.86737,-1.00928 3.4967,-2.45905 5.80969,-3.67419 1.09045,0.49304 1.60809,0.9566 2.04272,2.04937 -0.0876,1.4646 -0.0922,2.30005 -0.2882,3.17218 -0.32032,0.69825 -0.4491,1.35968 -0.66364,2.52997 -0.1676,0.84296 -0.24939,1.17713 -0.50995,1.72443 -0.20422,1.22632 -0.22973,2.23938 -0.28424,3.73944 -0.37787,2.39185 -0.5747,4.34064 -1.10913,6.19195 -0.93713,3.24683 -2.53235,6.36237 -3.05615,9.65931 -1.75452,11.04223 4.33386,18.92248 11.43573,26.65704 7.34106,9.755 11.27514,20.33612 11.06579,32.28585 -0.1488,8.4903 -0.38671,16.9808 -0.71307,25.4661 -0.41327,10.745 0.0573,11.5172 10.2464,15.0477 14.66223,5.0805 29.86932,6.7701 45.24158,6.4289 13.69683,-0.3041 27.1109,-2.5143 39.90216,-7.987 5.92523,-2.535 8.4458,-5.9869 8.73565,-12.7451 0.76245,-17.779 2.2981,-35.53704 3.97052,-53.26147 1.60572,-17.018 7.77875,-31.90673 21.66547,-42.87817 2.9859,-2.35913 5.48987,-5.33545 8.17243,-8.07001 7.31573,-7.45758 12.17376,-16.32666 13.84033,-26.60241 1.64862,-10.16516 2.76269,-20.42969 3.75665,-30.685 1.00055,-10.32202 -2.38873,-19.38086 -9.28693,-27.02069 -5.05468,-5.59802 -11.84332,-5.73792 -17.86456,-0.99134 0.67749,-1.85394 1.25189,-3.93457 2.61609,-4.90692 2.34778,-1.67334 5.18762,-2.65625 7.82092,-3.92895 m 20.05597,173.22736 c 0,0 -0.0376,0.095 -0.19806,-0.4732 -0.52099,-0.2395 -1.04199,-0.4789 -1.80945,-1.3617 -4.4981,-5.26826 -8.85296,-10.73792 -16.96215,-11.6496 0.5368,3.4693 1.20922,6.89276 3.06225,9.46612 6.14588,8.53518 12.88666,16.64058 19.07636,25.14578 6.05243,8.3166 9.91638,17.9229 10.79077,27.9752 1.46594,16.8525 -5.39234,31.08 -19.17493,40.5021 -10.23358,6.9958 -21.55511,13.1711 -33.27099,17.0721 -26.87317,8.9476 -54.7223,12.0458 -83.16279,10.4736 -20.27008,-1.1203 -40.04846,-3.9774 -59.04602,-11.2905 -12.62963,-4.8619 -24.40264,-11.029 -33.33044,-21.6738 -6.44177,-7.6806 -9.96234,-16.5469 -7.35474,-26.1712 3.86255,-14.2561 10.8097,-27.2071 21.01117,-38.1314 4.6604,-4.9906 9.60834,-9.7116 14.38434,-14.5955 2.37207,-2.4256 2.5567,-5.3209 -0.28015,-7.0533 -1.19745,-0.73129 -3.96741,0.4293 -5.65692,1.3798 -1.67719,0.9437 -2.78662,2.8382 -4.33093,4.0856 -14.95758,12.0808 -25.86445,27.1784 -31.94611,45.3224 -2.11615,6.3129 -3.39008,13.8629 -2.03833,20.2063 4.22907,19.8456 17.96081,32.8478 35.58557,41.0015 24.54456,11.3551 51.06989,14.6775 77.85614,15.4953 9.07123,0.2773 18.19531,-0.4076 27.26532,-1.0651 9.95502,-0.7216 20.12787,-0.8518 29.75952,-3.1281 21.10687,-4.9883 41.75745,-11.2302 59.71265,-24.5322 14.8537,-11.0043 23.20618,-24.8172 23.01123,-43.3563 -0.0476,-4.5282 -1.29852,-9.0437 -1.8617,-14.4168 -2.36828,-6.1166 -4.73651,-12.2331 -6.99389,-18.3858 0,0 -0.0889,0.075 -0.0477,-0.5598 -0.3667,-0.4623 -0.73346,-0.9246 -1.04614,-1.3316 0,0 -0.0618,0.046 0.0113,-0.6934 -2.72071,-4.0789 -5.44141,-8.1578 -7.95392,-12.2051 0,0 -0.21094,10e-4 -0.10193,-0.6964 -1.38116,-1.4316 -2.76233,-2.8632 -4.07812,-4.3778 0,0 0.0749,0.075 -0.0601,-0.4606 -0.30713,-0.1792 -0.61426,-0.3584 -0.82105,-0.5166 m -25.84472,64.856 c 0,0 0.0704,0.059 -0.55268,0.043 -0.47522,0.3464 -0.95044,0.6928 -1.44775,0.9503 0,0 0.066,0.064 -0.54212,0.025 -0.50757,0.2917 -1.01513,0.5834 -2.15765,1.2158 -11.08563,5.8125 -23.04169,8.1224 -36.19898,8.8054 -4.0755,0.6615 -8.14294,1.3777 -12.22821,1.9723 -6.97638,1.0152 -13.96398,1.9539 -21.86877,3.0585 -10.9856,-0.4124 -21.97119,-0.8247 -33.50702,-1.7799 -10.41278,-1.7481 -20.82556,-3.4962 -32.03345,-5.2608 -6.55639,-3.5095 -13.43976,-6.5318 -19.58429,-10.655 -7.28564,-4.889 -6.82489,-15.839 0.42127,-23.2729 5.44708,-5.5883 11.06586,-11.0099 16.47436,-16.6343 1.60871,-1.6729 4.12293,-3.4627 1.63416,-6.3127 -2.4176,-2.7685 -5.22723,-2.2325 -7.47864,-0.1379 -6.30225,5.8627 -13.05823,11.4256 -18.40124,18.0951 -13.75458,17.1697 -5.84888,34.8135 9.84515,42.1664 6.29059,2.9473 12.85437,5.4921 19.52661,7.4102 19.38434,5.5721 39.3783,5.9433 60.22754,6.2558 12.51788,-0.686 25.10114,-0.8119 37.53009,-2.2607 7.89789,-0.9204 15.56671,-3.8064 23.31921,-5.7456 0,0 -0.0603,-0.032 0.62818,0 0.7998,-0.3559 1.59955,-0.7117 2.37298,-0.9998 0,0 -0.0672,-0.027 0.62201,-7e-4 0.80127,-0.3586 1.60254,-0.717 2.37598,-1.001 0,0 -0.0739,-0.029 0.52808,-0.043 0.50378,-0.2847 1.00763,-0.5695 2.15252,-1.2186 7.66632,-3.9078 15.72113,-7.2145 22.90943,-11.8617 11.24603,-7.2703 16.0108,-19.8681 12.54913,-30.3849 -3.03827,-9.2306 -8.42395,-16.9092 -15.86365,-23.0941 -2.02838,-1.6863 -4.49884,-2.8408 -6.78143,-4.2486 -3.21588,5.268 -1.56384,9.0558 1.4375,13.3593 2.09955,2.4555 4.19916,4.911 6.12262,7.4253 0,0 0.1593,-0.095 0.12036,0.6146 1.30194,1.4679 2.60394,2.9357 3.83753,4.4382 0,0 0.0723,-0.017 -0.0985,0.7686 2.47155,5.7845 3.33428,11.3836 -1.68885,16.4289 -0.33832,0.3399 -0.10595,1.248 -0.20898,1.8445 0,0 0.0576,0.062 -0.6471,-0.046 -3.77032,3.0495 -7.54059,6.0992 -11.35638,9.0594 0,0 0.0753,0.066 -0.54926,0.049 -0.47119,0.3521 -0.94238,0.7042 -1.43981,0.9685 m -234.08838,9.2985 c -0.34626,-0.619 -0.69257,-1.2381 -1.59833,-2.2213 -0.60718,-1.1855 -1.18659,-2.3863 -1.82568,-3.5542 -8.9961,-16.4414 -19.24836,-31.9695 -32.88025,-45.023 -2.67975,-2.5661 -5.52173,-3.7887 -8.73401,-0.7379 -3.43122,3.2588 -0.50183,5.6318 1.42852,7.5398 16.84717,16.6521 29.33576,36.256 38.65796,57.8383 7.80146,18.0615 20.70496,30.7277 38.17633,39.1593 4.19971,2.0267 8.23963,4.4423 12.56501,6.1387 8.43023,3.3066 16.80352,7.1708 25.57507,9.1009 14.27924,3.1419 28.85938,4.9164 44.03119,7.7687 2.58111,0.2034 5.16229,0.4071 7.66833,0.6397 0,0 -0.0281,-0.075 0.59235,0.4646 4.60083,0.4872 9.2055,1.4209 13.80188,1.3821 17.25268,-0.1454 34.51294,-0.3625 51.74896,-1.0712 7.06452,-0.2904 14.07483,-1.8989 21.83374,-2.9995 2.08045,-0.5776 4.16089,-1.1552 7.0835,-1.723 5.98291,-1.3765 11.96588,-2.7528 17.94531,-4.0626 0,0 -0.0537,-0.039 0.72205,0.026 2.1195,-0.656 4.23901,-1.3121 7.13086,-2.0236 16.01996,-5.6274 30.82629,-13.2754 43.26922,-25.1333 12.13358,-11.5633 24.28698,-23.1214 36.81438,-34.2509 12.0534,-10.7084 26.1619,-17.7651 42.1344,-20.4979 5.3812,-0.9207 10.9642,-0.623 16.4461,-1.0093 3.1773,-0.224 5.2399,-1.6576 5.4484,-5.2551 0.2371,-4.0888 -2.773,-4.2494 -5.3006,-4.323 -14.1259,-0.4114 -28.138,0.7022 -40.7608,7.654 -19.2214,10.5856 -37.0533,23.2061 -51.4186,40.0022 -15.20666,17.7799 -34.34893,28.4307 -56.82,34.1615 -48.97327,12.4899 -98.16126,13.2732 -147.55194,3.2876 -23.72034,-4.7956 -46.38221,-12.4599 -65.24421,-28.4819 -3.474,-2.9509 -6.31115,-6.6515 -9.77557,-10.5744 -0.39484,-0.5114 -0.78967,-1.0229 -1.14136,-1.4458 0,0 -0.0889,0.043 -0.0998,-0.6191 -0.64801,-0.8228 -1.29596,-1.6456 -1.87018,-2.484 0,0 -0.046,0.06 -0.0621,-0.5553 -0.34143,-0.4774 -0.68286,-0.955 -0.948,-1.4397 0,0 -0.0483,0.06 -0.0576,-0.5565 -0.34106,-0.4791 -0.68219,-0.9584 -0.94738,-1.4444 0,0 -0.0454,0.061 -0.0511,-0.5554 -0.33691,-0.4813 -0.67383,-0.9625 -0.93689,-1.4496 0,0 -0.049,0.056 -0.0137,-0.6836 -1.02124,-2.1031 -2.04242,-4.2063 -2.98975,-6.3118 0,0 -0.0477,0.057 -0.0505,-0.5614 -0.33813,-0.4822 -0.67626,-0.9645 -0.94598,-1.4456 0,0 -0.0364,0.058 -0.0328,-0.5657 -0.3432,-0.4814 -0.6864,-0.9629 -0.96362,-1.4444 0,0 -0.0222,0.062 -0.0529,-0.6587 m 309.03979,-55.9789 c -0.2882,-1.0987 -0.5764,-2.1974 -1.0423,-4.1663 1.369,-6.462 2.5928,-12.9599 4.1725,-19.3699 0.7178,-2.91303 1.0391,-5.82953 -2.3106,-6.39435 -1.7196,-0.2901 -4.8843,1.42334 -5.6485,3.05158 -7.3647,15.69197 -6.4391,31.34927 1.6307,46.48907 1.2311,2.3096 4.2511,4.3174 6.8169,4.9491 1.0547,0.2596 3.1613,-3.4453 4.658,-5.4453 0.5804,-0.7757 0.8548,-1.8036 1.1721,-2.749 6.0455,-18.0169 15.4304,-33.5436 32.3204,-43.50736 3.2774,-1.93335 1.9583,-4.41791 0.7566,-6.8949 -1.4112,-2.9093 -3.6626,-2.80225 -5.7649,-1.22754 -5.3014,3.97119 -11.3978,7.40546 -15.4044,12.45911 -6.1401,7.74479 -10.7936,16.66829 -16.6121,25.54519 -3.5165,3.6122 -3.399,-0.9981 -4.7353,-2.1079 0,0 -0.023,0.083 -0.01,-0.6315 m -1.0873,95.5635 c 0,0 -0.029,-0.065 0.6836,-0.09 15.2476,-10.3118 32.5003,-13.2885 50.4368,-13.933 8.5793,-0.3084 17.1469,-0.9417 26.2016,-2.0565 0.443,-8.9505 0.2784,-9.2159 -8.1618,-9.1613 -8.6378,0.056 -17.304,-0.105 -25.9049,0.539 -13.9577,1.0454 -27.7788,3.1223 -40.2665,10.1088 -7.0067,3.9201 -12.7272,9.241 -17.0236,16.3058 3.8847,3.0619 7.4029,2.6692 11.6204,0.4656 0.8226,-0.7418 1.6451,-1.4836 2.4144,-2.1788 M 283.57973,873.6897 c 0.9885,6.0555 1.92566,12.1203 2.99799,18.161 0.30697,1.7292 0.48532,4.2294 1.61743,4.9297 4.07129,2.5185 8.56961,5.2993 13.53659,3.1644 4.65759,-2.002 9.29843,-4.4247 13.29883,-7.5039 13.28802,-10.2278 26.13693,-21.0296 39.51236,-31.1375 2.79058,-2.1088 7.11297,-2.1908 10.72943,-3.2067 0.26828,0.5556 0.53656,1.1114 0.80481,1.6671 -5.04004,10.5899 -10.16959,21.1201 -17.97248,30.1257 -7.78094,8.9802 -15.49792,18.016 -23.78045,27.653 2.25964,0.5341 3.33606,0.9726 4.4288,1.0178 9.48331,0.3932 18.98294,0.5062 28.45138,1.1134 11.24616,0.7214 19.13153,-3.6751 24.19129,-13.8559 6.96313,-14.0103 14.91034,-27.5611 21.28155,-41.8244 3.45295,-7.7301 4.64289,-16.4994 6.58673,-24.862 0.81012,-3.4854 -0.84307,-5.1355 -4.67602,-4.9995 -5.82343,0.2068 -11.72077,0.4627 -17.48413,-0.1977 -13.33106,-1.5277 -25.4018,1.872 -36.90128,8.1992 -9.61132,5.2883 -19.25161,10.5253 -28.81018,15.9073 -2.83978,1.5989 -4.60403,1.6707 -6.22442,-1.7137 -1.63297,-3.4109 -3.77292,-6.6659 -6.15424,-9.615 -6.59521,-8.1676 -14.0809,-14.306 -25.82178,-12.7942 -6.72369,0.8659 -13.69818,0.7284 -20.4657,0.072 -8.5574,-0.8294 -14.09555,3.0898 -19.13317,9.2842 -13.61561,16.7426 -22.59906,36.0156 -30.72437,55.7299 -1.80045,4.3684 -2.21768,9.3309 -3.08084,14.0547 -0.7587,4.1519 1.14322,6.4206 5.38898,6.3292 10.64373,-0.2291 21.29132,-0.45 31.919,-1.0169 1.18949,-0.063 3.05979,-2.2195 3.25153,-3.5951 0.89535,-6.4226 0.9899,-12.9611 1.9696,-19.3667 1.86408,-12.1878 6.08817,-23.4895 14.10633,-33.0927 4.44906,-5.3285 9.35318,-4.9587 12.65426,1.0612 1.66941,3.0442 2.8403,6.3619 4.50217,10.3116 m 315.2677,-32.1313 c -5.40546,7.7702 -11.04224,15.3913 -16.16608,23.3428 -9.3067,14.4428 -17.58642,29.3654 -21.17132,46.4951 -0.89118,4.2587 0.0428,6.4601 4.09997,7.3035 2.09943,0.4365 4.27545,0.6637 6.42078,0.6925 7.8244,0.105 15.65051,0.098 23.47595,0.1115 8.25836,0.014 8.25843,0 8.8562,-8.4139 1.0802,-15.2103 3.52777,-18.3088 18.10828,-22.804 1.58252,-0.4881 3.21362,-0.8413 4.8421,-1.1531 7.06043,-1.3517 12.84345,0.8312 17.05585,6.6317 4.06885,5.603 5.72601,11.9294 4.85095,18.8572 -0.24011,1.9013 -0.4635,3.8048 -0.7868,6.4669 13.93853,0 27.2124,0.092 40.48034,-0.1459 1.28656,-0.023 3.1814,-1.8436 3.69556,-3.2355 2.65161,-7.1782 3.25958,-14.463 -1.98285,-20.802 -5.13104,-6.2044 -10.70441,-12.043 -15.87543,-17.8101 4.62867,-1.4135 10.1944,-2.2941 14.94995,-4.7461 8.35346,-4.3069 16.73078,-8.906 24.12012,-14.6425 6.49732,-5.0442 5.55335,-15.2529 -1.20581,-18.0743 -6.31885,-2.6376 -13.23474,-5.105 -19.95508,-5.2971 -25.78302,-0.7372 -51.59393,-0.4413 -77.39221,-0.7339 -6.67425,-0.076 -12.05182,1.8911 -16.42047,7.9572 m -190.7605,42.2055 c -9.07562,15.4801 -5.2893,26.2829 11.67249,32.7748 3.53906,1.3543 7.31854,2.7954 11.02063,2.89 20.45337,0.5233 40.91717,0.8054 61.37713,0.7921 5.60633,0 11.26209,-1.0385 16.80835,-2.0676 16.24976,-3.0154 30.83063,-9.3921 42.21692,-21.8683 12.90888,-14.1447 14.1142,-28.7186 3.38611,-44.4794 -6.565,-9.6448 -16.12054,-15.1594 -27.09137,-18.4206 -11.76922,-3.4986 -23.73029,-3.1037 -35.61023,-0.9853 -34.32135,6.1199 -62.81775,21.9547 -83.78003,51.3643 m 525.91209,-26.0471 c -9.3269,4.9216 -18.9106,9.1956 -29.4341,11.7402 3.7173,-15.2074 17.8172,-22.2775 26.8985,-34.4191 -3.1397,-0.3952 -5.2192,-0.843 -7.3068,-0.8849 -6.1631,-0.1235 -12.4118,0.5441 -18.477,-0.2469 -11.6869,-1.5243 -19.3882,4.0029 -25.652,12.8364 -1.0568,1.4905 -2.2549,2.9114 -3.1024,4.5152 -8.1538,15.4292 -16.45,30.7893 -24.23557,46.4033 -2.40979,4.8331 -3.38055,10.383 -5.01623,15.6029 -1.32404,4.2252 0.61493,5.8475 4.63238,5.8673 7.49752,0.037 14.99532,0.057 22.49222,0.1504 15.7033,0.1946 14.6961,-0.6686 15.5556,-14.2763 0.4447,-7.0396 3.0393,-13.2957 9.7938,-16.2724 5.8931,-2.5968 12.166,-4.6487 18.4791,-5.828 2.7334,-0.5108 6.6284,1.022 8.8869,2.9355 6.4863,5.4959 6.9045,12.903 4.6508,20.5996 -1.1357,3.8789 -2.5673,7.6712 -4.2719,12.7036 14.8586,0 28.6235,0.027 42.3874,-0.069 0.7849,-0.01 2.0453,-0.8666 2.2649,-1.5812 1.3017,-4.2368 3.1565,-8.5137 3.3435,-12.8409 0.4462,-10.3306 -4.0118,-18.9882 -10.8402,-26.5487 -3.1,-3.4324 -6.0408,-7.0086 -8.953,-10.4021 18.4515,-6.7815 37.7521,-14.2328 51.57668,-31.5091 -5.0871,-1.3286 -10.06778,-2.1893 -15.07098,-2.349 -9.0681,-0.2895 -18.0717,-1.2872 -26.4698,4.4618 -10.1073,6.9193 -20.9323,12.7906 -32.1318,19.4118 M 1063.16,899.8545 c -4.1106,-0.553 -8.3715,-0.5984 -12.3009,-1.7628 -8.6989,-2.5783 -12.1341,-9.5461 -8.5369,-17.6416 6.6794,-15.0324 15.265,-28.7575 28.5663,-39.0365 1.5149,-1.1707 2.2174,-3.3926 3.2965,-5.127 -1.8591,-0.7036 -3.7061,-1.9756 -5.5795,-2.016 -10.1573,-0.2191 -20.3257,-0.2965 -30.4802,-0.036 -2.4545,0.063 -5.6134,0.8851 -7.1896,2.5499 -14.0111,14.798 -25.5352,31.1679 -29.6709,51.6318 -2.78058,13.7594 2.7793,22.7015 16.138,27.3979 13.8137,4.8564 28.1168,5.0451 42.4406,4.6684 21.5848,-0.5678 42.0043,-5.9678 59.748,-18.3992 19.1529,-13.4187 28.8921,-33.4017 34.701,-55.439 1.0145,-3.8491 0.6192,-8.0699 0.8751,-12.1207 -13.0626,0 -25.1368,0 -37.2872,0 -0.171,1.2334 -0.4386,2.057 -0.3727,2.8532 1.0666,12.8839 -3.6876,24.1908 -9.6628,35.0958 -9.4514,17.2489 -23.7384,26.9432 -44.6848,27.3822 M 716.85042,893.571 c -3.11755,2.1984 -6.33356,4.2714 -9.33191,6.6219 -6.00152,4.7047 -9.95544,10.5239 -9.53363,18.8912 3.84949,0.1692 7.49768,0.4681 11.14587,0.4684 34.47461,0 68.94947,0.015 103.42377,-0.105 12.96015,-0.045 14.17383,-1.9246 10.07575,-14.2895 -2.81861,-8.5043 -6.52314,-10.3773 -15.09796,-7.6181 -1.42426,0.4583 -2.82789,0.9805 -4.25062,1.4439 -15.17047,4.9438 -30.62054,4.7665 -47.71539,2.7017 2.31641,-2.422 3.59039,-4.3321 5.35846,-5.4831 3.74658,-2.4391 7.63776,-4.7186 11.66785,-6.6498 22.49194,-10.7777 45.1419,-21.2307 67.52496,-32.228 8.9231,-4.3843 17.41365,-9.6996 25.83405,-15.0144 1.7339,-1.0945 2.2795,-4.0714 3.3729,-6.1808 -2.0286,-0.6517 -4.0489,-1.8406 -6.087,-1.8719 -19.47438,-0.2997 -38.95174,-0.5126 -58.42848,-0.5314 -17.64813,-0.017 -35.29791,0.1671 -52.94263,0.4941 -1.62579,0.03 -4.50299,1.5863 -4.63263,2.6886 -1.38214,11.7546 5.96735,18.1303 17.38977,14.8589 10.883,-3.1168 21.91889,-3.8502 33.1062,-3.6397 1.495,0.028 2.98426,0.3568 4.4762,0.5463 -1.104,2.1001 -2.32568,3.1781 -3.7359,3.8741 -5.95972,2.9404 -11.8794,5.9929 -17.98822,8.5947 -21.73901,9.2587 -43.2215,18.9983 -63.63141,32.4279 M 1380.147,830.6895 c -21.6019,0.7326 -42.8213,3.628 -62.7312,12.548 -15.7738,7.0668 -30.3084,16.0289 -40.5847,30.4868 -10.1704,14.3087 -6.1864,30.4807 9.3684,38.3642 1.6315,0.8269 3.261,1.7298 4.9931,2.2751 33.5426,10.5612 66.2693,8.6961 97.9554,-6.8482 5.5004,-2.6984 8.7511,-7.725 9.9811,-13.6684 0.4514,-2.1814 -0.5015,-4.6535 -0.8139,-6.993 -1.9825,0.5221 -4.228,0.6121 -5.9071,1.6332 -16.3758,9.9581 -34.2816,12.2328 -52.9256,10.6974 -8.0836,-0.6655 -15.6708,-2.9702 -22.132,-8.1934 -3.7627,-3.0418 -5.1249,-6.5742 -3.4316,-11.425 2.4449,-7.0046 6.3912,-12.8018 12.5743,-16.856 17.1272,-11.229 36.0805,-14.8471 56.2517,-13.0748 3.9895,0.3505 6.6254,2.4088 8.3732,6.1221 0.6674,1.4175 2.9717,3.3064 4.1107,3.0578 7.4219,-1.6181 14.9069,-3.2955 21.9812,-5.9808 2.646,-1.0043 5.7981,-4.6443 5.9945,-7.285 0.3772,-5.0738 -3.8445,-9.5862 -8.4879,-10.3002 -11.1622,-1.7164 -22.3812,-3.0643 -34.5696,-4.5598 m -185.3177,46.8832 c 4.1588,-4.735 7.8791,-9.9685 12.5725,-14.0959 8.4745,-7.4525 17.577,-14.1871 26.3127,-21.3493 2.2931,-1.88 4.2015,-4.2292 6.7565,-6.8438 -1.7964,-0.5366 -2.4133,-0.8722 -3.037,-0.885 -12.3133,-0.2535 -24.6323,-0.7352 -36.9376,-0.5013 -2.9709,0.056 -6.6855,1.7799 -8.7037,3.9796 -7.9584,8.6734 -15.8846,17.4664 -22.8776,26.9145 -10.483,14.1631 -20.9303,28.4656 -27.1765,45.2168 -1.0065,2.6991 -1.7236,5.506 -2.7886,8.9571 37.7782,0 74.5057,0 111.3273,0 0,-7.146 0.1797,-13.9288 -0.1854,-20.6819 -0.058,-1.0655 -2.6758,-2.9455 -3.9424,-2.8156 -3.9322,0.4037 -7.8466,1.3827 -11.6551,2.517 -14.5289,4.3264 -29.1649,6.5216 -44.2908,3.4614 -2.8404,-0.5747 -3.8512,-1.6575 -4.0187,-4.5133 -0.4532,-7.7281 4.4939,-12.9637 8.6444,-19.3603 M 506.6014,682.24486 c 1.46228,1.4571 2.71051,3.8329 4.41956,4.2312 19.57934,4.5621 31.55493,18.2174 41.62487,34.2325 0.51612,0.821 0.61609,1.9035 1.29834,4.1348 -3.15356,-1.6411 -5.17981,-2.6746 -7.18719,-3.7438 -11.13116,-5.9286 -22.95374,-9.7392 -35.41235,-11.6338 -8.02802,-1.2204 -15.62745,0.2519 -22.75055,3.9294 -3.37323,1.7414 -4.64881,5.1213 -3.22217,8.5235 1.57098,3.7461 4.82397,1.5387 6.85284,0.4857 9.77747,-5.0739 19.79883,-4.8346 29.50867,-0.807 12.57471,5.216 24.76269,11.3605 37.16467,17.0009 1.68714,0.7672 4.80957,1.8072 5.26215,1.2076 1.2749,-1.6894 1.76074,-4.1339 2.05298,-6.3473 0.18469,-1.3983 -0.42853,-2.9487 -0.86475,-4.3754 -7.53088,-24.6351 -23.55206,-41.264 -47.60681,-50.21 -2.46783,-0.9177 -5.14728,-1.354 -7.76843,-1.7498 -3.4469,-0.5207 -5.27265,0.6173 -3.37183,5.1215 m 400.8829,-36.0784 c 7.5614,-7.5406 16.1873,-10.7153 26.7491,-6.9059 1.4979,0.5404 3.4351,-0.1373 5.1691,-0.2512 -0.1967,-2.0537 0.1755,-4.4262 -0.7476,-6.0729 -0.9565,-1.7061 -2.9933,-3.0961 -4.8658,-3.942 -4.6823,-2.1151 -9.4899,-2.3783 -14.5123,-0.5999 -21.0155,7.4416 -32.1678,24.1434 -40.7503,43.222 -0.5877,1.3062 0.3038,3.2777 0.5074,4.9398 1.9832,-0.3218 4.3527,-0.081 5.8502,-1.11 1.8132,-1.2457 2.88,-3.5716 4.286,-5.4178 5.9308,-7.7877 11.8676,-15.5707 18.3142,-23.8621 m -337.38272,-17.4599 c -4.04473,-4.5447 -7.86847,-9.3244 -12.28442,-13.474 -1.15222,-1.0829 -4.14868,-0.203 -6.29816,-0.2245 0.0822,2.011 0.048,4.0371 0.30713,6.0251 0.0952,0.7302 0.80487,1.445 1.36835,2.0398 7.96344,8.4054 12.88116,18.366 15.69183,29.5507 0.32233,1.2827 3.03797,2.8469 4.57264,2.7743 4.36511,-0.2067 4.91607,-3.6582 3.89111,-6.9084 -2.03852,-6.4637 -4.57013,-12.7719 -7.24848,-19.783 z"
   id="path20" />
<path
   fill="#017dc6"
   opacity="1"
   stroke="none"
   d="m 653.78304,490.02281 c -10.94171,5.54974 -21.98498,10.90899 -32.80639,16.68408 -35.90839,19.16321 -71.7259,38.49658 -107.59839,57.72699 -51.24292,27.47003 -102.48047,54.95018 -153.77103,82.33088 -15.14874,8.087 -30.93088,13.1304 -48.59146,13.151 -11.38062,0.013 -22.81513,3.0895 -34.1189,5.3304 -10.62897,2.107 -21.14654,4.8066 -31.65979,7.4571 -8.26675,2.0841 -16.45001,4.4987 -24.67651,6.744 -1.08521,0.2963 -2.20664,0.4596 -3.65122,-0.013 4.78473,-3.4887 9.56702,-6.9808 14.35474,-10.4654 9.96002,-7.2492 19.90802,-14.5148 29.88873,-21.7354 11.2674,-8.1512 22.62619,-16.1775 33.83561,-24.4075 17.04754,-12.51631 33.95141,-25.22859 51.00958,-37.7303 13.41055,-9.82837 26.9353,-19.50183 40.4577,-29.17639 16.07959,-11.50415 32.30072,-22.81238 48.29822,-34.42895 22.00042,-15.97553 44.01123,-31.94471 65.72809,-48.30097 45.60461,-34.34759 91.031,-68.932 136.50988,-103.44635 27.15546,-20.6087 53.82959,-41.79687 77.75855,-66.18738 4.64532,-4.73498 9.04144,-9.75482 13.1615,-14.95318 3.96429,-5.00171 5.40332,-10.87018 4.591,-17.32965 -1.81048,-14.39734 -5.04388,-28.19721 -15.27521,-39.3061 -7.16729,-7.78204 -16.52038,-12.14501 -25.7998,-16.67315 -4.76032,-2.32312 -9.55493,-4.68018 -13.98029,-7.56458 -10.4165,-6.78942 -12.96527,-16.69934 -7.42926,-27.63647 7.62787,-15.06983 20.88697,-24.04114 34.75336,-32.56262 23.09271,-14.19153 48.73242,-17.99433 75.06433,-19.3537 1.99396,-0.10303 3.98761,-0.21399 6.87409,-0.32685 13.38787,-0.27996 25.88305,-0.55444 38.37817,-0.82885 15.85382,-0.69562 31.70766,-1.39124 47.56146,-2.08686 0.2464,0.42725 0.4928,0.8545 0.7392,1.28174 -1.8089,1.57862 -3.6229,3.15137 -5.4259,4.7367 -12.4304,10.92981 -19.55829,24.63098 -21.31659,41.08044 -1.61695,15.12732 3.10418,23.47357 16.77059,30.03357 13.2481,6.35944 27.45,8.271 41.8916,8.73499 16.593,0.53314 33.2182,1.42443 49.7918,0.92248 31.7223,-0.96069 63.4092,-3.04694 95.1282,-4.17724 19.4654,-0.69367 38.9628,-0.49054 58.4463,-0.64997 1.3572,-0.0111 2.7172,0.31134 4.9303,0.58386 -12.3507,9.33515 -24.1228,17.65387 -35.238,26.77326 -15.6702,12.85638 -31.1099,26.02093 -46.1859,39.56805 -23.0155,20.68122 -48.4318,37.60388 -75.9223,51.75482 -33.124,17.05079 -65.9521,34.68415 -98.7414,52.37464 -18.96946,10.23443 -37.61393,21.07153 -56.38676,31.66901 -0.81628,0.46075 -1.45324,1.23913 -2.71606,1.93273 -0.888,-2.708 -1.23377,-5.47912 -1.66504,-8.71252 -1.41913,-4.31061 -2.75275,-8.15906 -4.09277,-11.98847 -0.006,0.019 0.0325,0.009 -3.7e-4,-0.33447 -6.61725,-6.32464 -26.73047,-4.28424 -31.93842,2.90564 -0.28595,0.39472 -0.43152,0.89112 -0.82904,1.78082 -0.2268,5.83222 -0.26697,11.22376 -0.6134,16.68378 -0.71979,0.0228 -1.13324,-0.0228 -1.5763,-0.49151 -0.50567,-4.87256 -0.98187,-9.32203 -1.47558,-14.08631 -1.31921,-4.25061 -3.96771,-6.10541 -7.85242,-4.23913 -4.01422,1.92865 -7.71856,4.50207 -11.70739,7.11047 -4.33985,4.28589 -9.65088,7.62122 -12.36701,12.42413 -2.1723,3.84137 -1.18872,9.46741 -1.91785,14.33356 -0.72992,0.0347 -1.14776,0.0373 -1.61297,-0.35675 -2.14221,-6.49695 -3.65283,-7.27979 -9.29993,-4.7641 -10.8692,4.84198 -18.7406,13.03259 -24.89691,22.9696 -0.68665,1.10828 -0.34729,2.97132 -0.19672,4.4552 0.34168,3.36786 0.86237,6.7176 1.31025,10.07465 -5.92963,-7.12237 -7.30005,-7.38837 -15.25617,-2.74609 -0.70447,0.41107 -1.36987,0.93408 -2.125,1.20672 -6.49622,2.34516 -9.38238,8.31226 -13.49048,13.1239 -4.80115,5.62336 -5.37219,11.62531 -2.98511,18.45813 -0.1076,0.20478 -0.0432,0.66297 -0.0432,0.66297 z"
   id="path21" />
<path
   fill="#fcfdfa"
   opacity="1"
   stroke="none"
   d="m 907.6491,20.869726 c 35.9656,9e-5 71.4311,-0.11154 106.8948,0.0639 11.5813,0.0573 12.6282,-1.60617 9.3378,12.41284 -4.8096,20.49167 -15.2229,38.03027 -29.3917,53.43673 -13.3586,14.525494 -29.7361,21.088994 -49.6381,21.266914 -36.6132,0.32733 -73.2159,1.81534 -109.82319,2.81073 -10.31049,0.28037 -20.62091,0.59061 -30.93347,0.73898 -1.91297,0.0276 -3.83612,-0.6539 -7.03089,-1.24377 3.62488,-4.56674 6.49054,-8.49884 9.68335,-12.144384 15.05219,-17.18689 24.93091,-37.45892 35.24597,-57.57904 12.42591,-24.2374 7.9505,-19.21429 31.73173,-19.72217 11.1363,-0.23785 22.2816,-0.0408 33.9237,-0.0407 m -21.0864,68.11579 c 3.6777,-4.19727 7.6718,-8.16291 10.9551,-12.64887 4.3614,-5.95901 10.0587,-9.72031 17.5466,-12.75873 1.367,8.41519 2.6524,16.32862 3.9445,24.28354 1.6146,0 3.0188,0 5.6714,0 -1.2714,-7.87494 -2.1768,-15.36386 -3.7869,-22.69806 -0.8605,-3.91937 -0.432,-6.28213 3.2646,-8.44778 9.0845,-5.32196 17.917,-11.07413 26.7353,-16.58112 -3.6167,-2.47943 -7.3449,-1.34091 -10.9538,1.02503 -5.3994,3.53985 -10.7341,7.17929 -16.1589,10.67938 -4.9153,3.17123 -9.9141,6.21274 -14.8761,9.31143 -0.2688,-0.28726 -0.5377,-0.57449 -0.8065,-0.86172 3.9249,-7.15073 7.8498,-14.30146 11.7749,-21.45218 -0.3976,-0.29499 -0.7952,-0.58997 -1.1928,-0.88495 -1.1928,0.67322 -2.8601,1.04513 -3.5075,2.0647 -10.1756,16.02395 -20.2199,32.13131 -30.7191,48.63424 -0.1375,0.35498 -0.275,0.70999 -0.4124,1.06497 0.6134,-0.20483 1.2267,-0.40966 2.5216,-0.72988 m 97.7321,-41.0192 c 4.4725,-2.85965 8.9449,-5.7193 13.4174,-8.57898 -16.9741,1.47684 -27.2822,15.93115 -43.1959,20.29636 4.3478,-7.15534 8.6956,-14.31064 13.0434,-21.46598 -0.4454,-0.39474 -0.8907,-0.78949 -1.336,-1.18423 -2.571,2.56 -5.6703,4.77347 -7.6183,7.74228 -6.9922,10.65634 -13.5628,21.58844 -20.3624,32.3724 -2.4011,3.80802 -5.0021,7.49009 -7.5117,11.22965 0.4282,0.45166 0.8564,0.90335 1.2847,1.35501 2.1281,-1.6713 4.6204,-3.0422 6.3031,-5.08124 2.836,-3.4367 5.0006,-7.4194 7.7348,-10.94995 3.8058,-4.91376 8.5027,-8.62662 15.132,-10.035 0.5522,2.06659 1.0837,3.62774 1.3774,5.23245 1.013,5.53186 1.7263,11.13113 3.0413,16.58722 0.3756,1.55792 2.4044,2.71741 3.675,4.0596 0.5167,-0.33383 1.0333,-0.66766 1.5501,-1.00146 0,-1.62418 0.1734,-3.27048 -0.031,-4.86857 -0.7971,-6.24099 -1.5442,-12.49697 -2.6481,-18.68704 -0.6826,-3.82681 -0.2869,-6.57843 3.5694,-8.65173 4.2065,-2.26166 8.0293,-5.23731 12.5746,-8.37079 m -101.5862,20.02518 c -0.901,-0.88983 -1.6836,-1.96314 -2.7249,-2.6359 -3.4627,-2.23724 -7.1972,-4.09006 -10.4937,-6.53946 -4.1987,-3.11978 -4.5836,-6.9317 -1.1293,-10.55197 1.7906,-1.87655 4.0462,-3.5405 6.4062,-4.6008 8.2342,-3.6994 14.0563,-0.21918 14.9483,8.58698 0.086,0.85031 0.7544,1.64169 1.1665,2.48962 4.4302,-1.39392 4.9109,-4.75052 5.0273,-8.37701 0.1155,-3.59604 -2.0926,-5.26505 -5.0072,-6.59009 -9.9331,-4.51575 -24.7545,0.67306 -29.4863,10.54587 -1.9509,4.07092 -1.9852,8.16165 2.0047,11.17407 3.4205,2.58252 7.1178,4.7948 10.6228,7.26968 4.0887,2.887 4.8517,5.80957 1.1085,8.80243 -3.8485,3.07694 -8.6103,6.3356 -13.2591,6.83225 -12.57298,1.3432 -13.95421,-2.91413 -11.32158,-11.82871 0.0299,-0.10141 -0.17132,-0.27109 -0.57892,-0.87295 -3.05383,1.11111 -5.87225,2.4443 -6.32733,6.32412 -0.5097,4.34537 0.62433,8.5373 5.04468,9.63975 4.711,1.17495 9.85565,1.5014 14.70255,1.0455 8.646,-0.8133 21.8058,-9.44501 19.2968,-20.71338 z"
   id="path22" />
<path
   fill="#017dc6"
   opacity="1"
   stroke="none"
   d="m 285.73403,719.09316 c 7.72119,-4.3824 15.44238,-8.7648 23.16357,-13.1471 0.34629,0.4259 0.69257,0.8517 1.03882,1.2776 -1.32889,1.4443 -2.51999,3.0518 -4.00754,4.3083 -20.81948,17.5839 -40.77059,36.3685 -62.74993,52.3644 -30.30399,22.0542 -61.92798,42.332 -93.40772,62.7204 -20.76251,13.4473 -42.26172,25.7575 -63.443852,38.5557 -1.94954,1.1779 -3.99131,2.2031 -5.93635,3.2698 -3.08124,-9.8972 -6.14829,-19.3231 -8.82805,-28.8579 -0.36345,-1.2932 0.76497,-3.8518 1.96565,-4.6002 7.32721,-4.5672 14.77954,-8.9556 22.36466,-13.0829 48.474192,-26.3767 96.993632,-52.6702 145.498642,-78.9901 1.276,-0.6924 2.5574,-1.3747 4.44681,-2.3416 7.41925,-4.0049 14.2279,-7.73 21.03659,-11.455 3e-5,0 -0.0733,-0.093 0.30441,-0.051 6.43652,-3.2957 12.49539,-6.6331 18.55429,-9.9703 z"
   id="path23" />
<path
   fill="#017dc6"
   opacity="1"
   stroke="none"
   d="m 209.41415,707.30896 c 24.27868,-6.407 48.17514,-12.6968 72.07156,-18.9866 0.17941,0.3887 0.35879,0.7774 0.53818,1.1659 -2.11182,1.2853 -4.15217,2.71 -6.34623,3.8347 -29.58178,15.1647 -59.25839,30.1463 -88.76461,45.4562 -38.35798,19.9028 -76.58353,40.0609 -114.869622,60.1023 -4.41595,2.3115 -8.75804,4.8068 -13.33241,6.7507 -1.71835,0.7302 -4.78568,1.0033 -5.89702,-3e-4 -6.74632,-6.092 -13.10527,-12.6131 -20.15318,-19.5409 57.86313,-30.0125 115.325042,-58.3317 176.753332,-78.782 z"
   id="path24" />
<path
   fill="#017dc6"
   opacity="1"
   stroke="none"
   d="m 1095.3497,277.58995 c -8.4005,4.38885 -16.8009,8.77777 -25.2013,13.16662 -0.2966,-0.50525 -0.5933,-1.01056 -0.8899,-1.5158 11.306,-7.95997 22.624,-15.90314 33.9157,-23.88331 26.1439,-18.47674 52.0983,-37.2304 78.5385,-55.27227 6.4037,-4.36963 14.2702,-6.75306 21.6803,-9.45661 14.3371,-5.23059 28.8282,-10.03943 43.925,-14.7818 0.8796,0.40131 1.0896,0.56128 1.2995,0.72119 -14.7368,9.80988 -29.4017,19.73023 -44.2294,29.40082 -17.3122,11.29096 -34.7667,22.36383 -52.7834,33.79114 -19.1676,9.44995 -37.7113,18.64002 -56.255,27.83002 z"
   id="path25" />
<path
   fill="#017dc6"
   opacity="1"
   stroke="none"
   d="m 1134.4367,209.93236 c 6.5779,-1.60389 13.1557,-3.20777 19.7335,-4.81165 0.1877,0.42621 0.3753,0.85248 0.563,1.27875 -32.8254,23.0852 -65.6508,46.17047 -98.4763,69.25573 -0.3515,-0.42401 -0.7031,-0.84796 -1.0545,-1.27197 3.6569,-3.16931 7.2865,-6.37091 10.9758,-9.50238 16.4488,-13.96185 32.9145,-27.90375 49.8216,-42.19433 2.2749,-1.99787 4.1025,-3.65424 5.9301,-5.31067 0,0 0.1534,-0.0328 0.4935,-0.17994 4.2311,-2.51922 8.1222,-4.89141 12.0133,-7.26354 z"
   id="path26" />
<path
   fill="#dce274"
   opacity="1"
   stroke="none"
   d="m 1095.6502,277.70774 c 18.2432,-9.30779 36.7869,-18.49786 55.69,-27.73547 -7.0541,4.27405 -14.2959,8.93182 -21.9246,12.83301 -9.7291,4.97528 -19.7621,9.35852 -29.6899,13.94049 -1.1743,0.54193 -2.5127,0.72852 -4.0755,0.96197 z"
   id="path27" />
<path
   fill="#8f9a1b"
   opacity="1"
   stroke="none"
   d="m 796.83541,403.30229 c 0.3457,2.77118 0.69147,5.5423 1.37457,8.54974 -0.54407,10.14838 -1.42554,20.06055 -2.39679,30.98297 3.46772,-1.18457 6.1792,-2.11084 9.26935,-3.02337 -2.2547,1.28637 -5.09454,2.26928 -7.44232,3.94262 -1.3642,0.97235 -1.9386,3.05298 -2.4859,4.94239 0.38244,0.30749 0.6109,0.45123 0.289,0.54138 -0.65344,-3.06629 -1.41296,-6.24652 -1.23865,-9.37476 0.58972,-10.578 1.51038,-21.13745 2.36987,-32.11657 0.1305,-1.75654 0.19568,-3.10047 0.26087,-4.4444 z"
   id="path28" />
<path
   fill="#8f9a1b"
   opacity="1"
   stroke="none"
   d="m 650.8503,525.37028 c -0.51764,-0.46356 -1.03528,-0.92712 -1.78833,-1.54022 1.31647,-4.70709 3.43433,-9.16315 4.27436,-13.84845 1.00952,-5.6308 0.93121,-11.45666 1.32086,-17.65729 -0.003,-0.45917 -0.0256,-0.44708 0.29052,-0.22943 3.31244,9.36548 -0.0875,18.08405 -1.59192,26.90466 -0.37554,2.20197 -1.64624,4.25122 -2.50549,6.37073 z"
   id="path29" />
<path
   fill="#dce274"
   opacity="1"
   stroke="none"
   d="m 824.69033,126.9138 c -12.09711,0.38098 -24.59229,0.65546 -37.54755,0.86115 3.28711,-0.34992 7.0315,-0.81721 10.78217,-0.87488 8.78753,-0.13532 17.57806,-0.0743 26.76538,0.0137 z"
   id="path30" />
<path
   fill="#dce274"
   opacity="1"
   stroke="none"
   d="m 266.50893,729.06016 c -6.44229,3.7794 -13.25094,7.5045 -20.38189,11.2644 6.45697,-3.7497 13.23623,-7.5343 20.38189,-11.2644 z"
   id="path31" />
<path
   fill="#dce274"
   opacity="1"
   stroke="none"
   d="m 285.44613,718.99976 c -5.771,3.4306 -11.82987,6.768 -18.26276,10.1228 5.74225,-3.3938 11.85855,-6.805 18.26276,-10.1228 z"
   id="path32" />
<path
   fill="#dce274"
   opacity="1"
   stroke="none"
   d="m 1134.0647,209.8867 c -3.5191,2.41779 -7.4102,4.78998 -11.6315,7.23138 1.8591,-5.02026 6.3574,-6.46704 11.6315,-7.23138 z"
   id="path33" />
<path
   fill="#dce274"
   opacity="1"
   stroke="none"
   d="m 1121.6077,217.2512 c -1.5054,1.78107 -3.333,3.43744 -5.4501,5.10492 1.5163,-1.73584 3.3222,-3.48273 5.4501,-5.10492 z"
   id="path34" />
<path
   fill="#017dc6"
   opacity="1"
   stroke="none"
   d="m 1052.2577,278.87877 c -1.3967,0.61279 -2.3674,0.95617 -3.3382,1.29956 -0.167,-0.31739 -0.3341,-0.63477 -0.5011,-0.95209 1.2703,-0.76489 2.5405,-1.52973 3.8108,-2.2945 0.1515,0.55921 0.303,1.11847 0.029,1.94703 z"
   id="path35" />
<path
   fill="#017dc6"
   opacity="1"
   stroke="none"
   d="m 1054.9591,274.45677 c 0.232,0.85998 -0.135,1.93243 -0.5021,3.00488 -0.5245,-0.28033 -1.0492,-0.56067 -1.5737,-0.841 0.4921,-0.65045 0.9843,-1.3009 2.0758,-2.16388 z"
   id="path36" />
<path
   fill="#017dc6"
   opacity="1"
   stroke="none"
   d="m 1247.6831,185.83482 c 0.7192,-0.55402 1.7429,-0.8548 2.7666,-1.15552 -0.3897,0.53614 -0.7795,1.07239 -1.5006,1.74866 -0.5415,-0.0199 -0.7515,-0.17987 -1.266,-0.59314 z"
   id="path37" />
<path
   fill="#8f9a1b"
   opacity="1"
   stroke="none"
   d="m 653.74544,490.29722 c 0.0376,-0.27441 -0.0268,-0.7326 0.30115,-0.755 0.4137,0.76343 0.49939,1.54925 0.58502,2.33502 0,0 0.0225,-0.0121 0.0338,-0.0178 -0.31171,-0.43305 -0.63465,-0.86047 -0.91993,-1.56226 z"
   id="path38" />
<path
   fill="#fcf707"
   opacity="1"
   stroke="none"
   d="m 283.4479,873.31586 c -1.52906,-3.5717 -2.69995,-6.8894 -4.36936,-9.9336 -3.30108,-6.0199 -8.2052,-6.3897 -12.65426,-1.0612 -8.01816,9.6032 -12.24225,20.9049 -14.10633,33.0927 -0.9797,6.4056 -1.07425,12.9441 -1.9696,19.3667 -0.19174,1.3756 -2.06204,3.5317 -3.25153,3.5951 -10.62768,0.5669 -21.27527,0.7878 -31.919,1.0169 -4.24576,0.091 -6.14768,-2.1773 -5.38898,-6.3292 0.86316,-4.7238 1.28039,-9.6863 3.08084,-14.0547 8.12531,-19.7143 17.10876,-38.9873 30.72437,-55.7299 5.03762,-6.1944 10.57577,-10.1136 19.13317,-9.2842 6.76752,0.6559 13.74201,0.7934 20.4657,-0.072 11.74088,-1.5118 19.22657,4.6266 25.82178,12.7942 2.38132,2.9491 4.52127,6.2041 6.15424,9.615 1.62039,3.3844 3.38464,3.3126 6.22442,1.7137 9.55857,-5.382 19.19886,-10.619 28.81018,-15.9073 11.49948,-6.3272 23.57022,-9.7269 36.90128,-8.1992 5.76336,0.6604 11.6607,0.4045 17.48413,0.1977 3.83295,-0.136 5.48614,1.5141 4.67602,4.9995 -1.94384,8.3626 -3.13378,17.1319 -6.58673,24.862 -6.37121,14.2633 -14.31842,27.8141 -21.28155,41.8244 -5.05976,10.1808 -12.94513,14.5773 -24.19129,13.8559 -9.46844,-0.6072 -18.96807,-0.7202 -28.45138,-1.1134 -1.09274,-0.045 -2.16916,-0.4837 -4.4288,-1.0178 8.28253,-9.637 15.99951,-18.6728 23.78045,-27.653 7.80289,-9.0056 12.93244,-19.5358 17.97248,-30.1257 -0.26825,-0.5557 -0.53653,-1.1115 -0.80481,-1.6671 -3.61646,1.0159 -7.93885,1.0979 -10.72943,3.2067 -13.37543,10.1079 -26.22434,20.9097 -39.51236,31.1375 -4.0004,3.0792 -8.64124,5.5019 -13.29883,7.5039 -4.96698,2.1349 -9.4653,-0.6459 -13.53659,-3.1644 -1.13211,-0.7003 -1.31046,-3.2005 -1.61743,-4.9297 -1.07233,-6.0407 -2.00949,-12.1055 -3.1308,-18.539 z"
   id="path39" />
<path
   fill="#fdf805"
   opacity="1"
   stroke="none"
   d="m 599.09273,841.30346 c 4.12433,-5.807 9.5019,-7.7737 16.17615,-7.6981 25.79828,0.2926 51.60919,0 77.39221,0.7339 6.72034,0.1921 13.63623,2.6595 19.95508,5.2971 6.75916,2.8214 7.70313,13.0301 1.20581,18.0743 -7.38934,5.7365 -15.76666,10.3356 -24.12012,14.6425 -4.75555,2.452 -10.32128,3.3326 -14.94995,4.7461 5.17102,5.7671 10.74439,11.6057 15.87543,17.8101 5.24243,6.339 4.63446,13.6238 1.98285,20.802 -0.51416,1.3919 -2.409,3.2126 -3.69556,3.2355 -13.26794,0.2376 -26.54181,0.1459 -40.48034,0.1459 0.3233,-2.6621 0.54669,-4.5656 0.7868,-6.4669 0.87506,-6.9278 -0.7821,-13.2542 -4.85095,-18.8572 -4.2124,-5.8005 -9.99542,-7.9834 -17.05585,-6.6317 -1.62848,0.3118 -3.25958,0.665 -4.8421,1.1531 -14.58051,4.4952 -17.02808,7.5937 -18.10828,22.804 -0.59777,8.4176 -0.59784,8.4284 -8.8562,8.4139 -7.82544,-0.014 -15.65155,-0.01 -23.47595,-0.1115 -2.14533,-0.029 -4.32135,-0.256 -6.42078,-0.6925 -4.05719,-0.8434 -4.99115,-3.0448 -4.09997,-7.3035 3.5849,-17.1297 11.86462,-32.0523 21.17132,-46.4951 5.12384,-7.9515 10.76062,-15.5726 16.4104,-23.6019 m 39.32514,7.7183 c -10.42194,3.1292 -19.86731,14.6545 -19.55304,24.6057 2.69073,-0.2608 5.44244,-0.174 8.00134,-0.8346 13.96936,-3.6053 27.94397,-7.2139 41.78992,-11.256 3.18939,-0.9309 6.20508,-3.2116 8.71594,-5.51 2.78516,-2.5497 1.95996,-5.4754 -1.53613,-6.179 -12.12525,-2.44 -24.34046,-2.9304 -37.41803,-0.8261 z"
   id="path40" />
<path
   fill="#fcf706"
   opacity="1"
   stroke="none"
   d="m 408.30257,883.47666 c 20.74762,-29.1182 49.24402,-44.953 83.56537,-51.0729 11.87994,-2.1184 23.84101,-2.5133 35.61023,0.9853 10.97083,3.2612 20.52637,8.7758 27.09137,18.4206 10.72809,15.7608 9.52277,30.3347 -3.38611,44.4794 -11.38629,12.4762 -25.96716,18.8529 -42.21692,21.8683 -5.54626,1.0291 -11.20202,2.0639 -16.80835,2.0676 -20.45996,0.013 -40.92376,-0.2688 -61.37713,-0.7921 -3.70209,-0.095 -7.48157,-1.5357 -11.02063,-2.89 -16.96179,-6.4919 -20.74811,-17.2947 -11.45783,-33.0662 m 44.6565,-9.7898 c -2.52619,3.6801 -5.38691,7.1801 -7.4895,11.088 -2.35236,4.3722 -1.17023,10.8583 1.99993,12.0797 3.40027,1.3102 7.02997,2.4757 10.62867,2.7312 8.93841,0.6344 17.91821,1.0078 26.87768,0.9461 12.17279,-0.084 23.41199,-2.7803 32.06641,-12.4524 6.34637,-7.0927 8.32123,-19.8003 3.71045,-27.6116 -3.75977,-6.3695 -17.67578,-12.327 -25.22028,-10.152 -15.6604,4.5148 -30.14404,11.386 -42.57336,23.371 z"
   id="path41" />
<path
   fill="#fcf707"
   opacity="1"
   stroke="none"
   d="m 934.3426,857.57276 c 10.8569,-6.473 21.6819,-12.3443 31.7892,-19.2636 8.3981,-5.749 17.4017,-4.7513 26.4698,-4.4618 5.0032,0.1597 9.9839,1.0204 15.071,2.349 -13.8246,17.2763 -33.1252,24.7276 -51.5767,31.5091 2.9122,3.3935 5.853,6.9697 8.953,10.4021 6.8284,7.5605 11.2864,16.2181 10.8402,26.5487 -0.187,4.3272 -2.0418,8.6041 -3.3435,12.8409 -0.2196,0.7146 -1.48,1.5757 -2.2649,1.5812 -13.7639,0.096 -27.5288,0.069 -42.3874,0.069 1.7046,-5.0324 3.1362,-8.8247 4.2719,-12.7036 2.2537,-7.6966 1.8355,-15.1037 -4.6508,-20.5996 -2.2585,-1.9135 -6.1535,-3.4463 -8.8869,-2.9355 -6.3131,1.1793 -12.586,3.2312 -18.4791,5.828 -6.7545,2.9767 -9.3491,9.2328 -9.7938,16.2724 -0.8595,13.6077 0.1477,14.4709 -15.5556,14.2763 -7.4969,-0.093 -14.9947,-0.1134 -22.49222,-0.1504 -4.01745,-0.02 -5.95642,-1.6421 -4.63238,-5.8673 1.63568,-5.2199 2.60644,-10.7698 5.01623,-15.6029 7.78557,-15.614 16.08177,-30.9741 24.23557,-46.4033 0.8475,-1.6038 2.0456,-3.0247 3.1024,-4.5152 6.2638,-8.8335 13.9651,-14.3607 25.652,-12.8364 6.0652,0.791 12.3139,0.1234 18.477,0.2469 2.0876,0.042 4.1671,0.4897 7.3068,0.8849 -9.0813,12.1416 -23.1812,19.2117 -26.8985,34.4191 10.5235,-2.5446 20.1072,-6.8186 29.7767,-11.8884 z"
   id="path42" />
<path
   fill="#fcf707"
   opacity="1"
   stroke="none"
   d="m 1063.6225,899.85866 c 20.4849,-0.4389 34.7719,-10.1332 44.2233,-27.3821 5.9752,-10.905 10.7294,-22.2119 9.6628,-35.0958 -0.066,-0.7962 0.2017,-1.6198 0.3727,-2.8532 12.1504,0 24.2246,0 37.2872,0 -0.2559,4.0508 0.1394,8.2716 -0.8751,12.1207 -5.8089,22.0373 -15.5481,42.0203 -34.701,55.439 -17.7437,12.4314 -38.1632,17.8314 -59.748,18.3992 -14.3238,0.3767 -28.6269,0.188 -42.4406,-4.6684 -13.3587,-4.6964 -18.9186,-13.6385 -16.138,-27.3979 4.1357,-20.4639 15.6598,-36.8338 29.6709,-51.6318 1.5762,-1.6648 4.7351,-2.4869 7.1896,-2.5499 10.1545,-0.2601 20.3229,-0.1827 30.4802,0.036 1.8734,0.04 3.7204,1.3124 5.5795,2.016 -1.0791,1.7344 -1.7816,3.9563 -3.2965,5.127 -13.3013,10.279 -21.8869,24.0041 -28.5663,39.0365 -3.5972,8.0955 -0.162,15.0633 8.5369,17.6416 3.9294,1.1644 8.1903,1.2098 12.7624,1.7627 z"
   id="path43" />
<path
   fill="#fcf708"
   opacity="1"
   stroke="none"
   d="m 717.126,893.33816 c 20.13531,-13.1929 41.6178,-22.9325 63.35681,-32.1912 6.10882,-2.6018 12.0285,-5.6543 17.98822,-8.5947 1.41022,-0.696 2.6319,-1.774 3.7359,-3.8741 -1.49194,-0.1895 -2.9812,-0.5184 -4.4762,-0.5463 -11.18731,-0.2105 -22.2232,0.5229 -33.1062,3.6397 -11.42242,3.2714 -18.77191,-3.1043 -17.38977,-14.8589 0.12964,-1.1023 3.00684,-2.6584 4.63263,-2.6886 17.64472,-0.327 35.2945,-0.5111 52.94263,-0.4941 19.47674,0.019 38.9541,0.2317 58.42848,0.5314 2.0381,0.031 4.0584,1.2202 6.087,1.8719 -1.0934,2.1094 -1.639,5.0863 -3.3729,6.1808 -8.4204,5.3148 -16.91095,10.6301 -25.83405,15.0144 -22.38306,10.9973 -45.03302,21.4503 -67.52496,32.228 -4.03009,1.9312 -7.92127,4.2107 -11.66785,6.6498 -1.76807,1.151 -3.04205,3.0611 -5.35846,5.4831 17.09485,2.0648 32.54492,2.2421 47.71539,-2.7017 1.42273,-0.4634 2.82636,-0.9856 4.25062,-1.4439 8.57482,-2.7592 12.27935,-0.8862 15.09796,7.6181 4.09808,12.3649 2.8844,14.2445 -10.07575,14.2895 -34.4743,0.1199 -68.94916,0.1089 -103.42377,0.105 -3.64819,-3e-4 -7.29638,-0.2992 -11.14587,-0.4684 -0.42181,-8.3673 3.53211,-14.1865 9.53363,-18.8912 2.99835,-2.3505 6.21436,-4.4235 9.60651,-6.8586 z"
   id="path44" />
<path
   fill="#fcf706"
   opacity="1"
   stroke="none"
   d="m 1380.6441,830.69286 c 11.6923,1.496 22.9113,2.8439 34.0735,4.5603 4.6434,0.714 8.8651,5.2264 8.4879,10.3002 -0.1964,2.6407 -3.3485,6.2807 -5.9945,7.285 -7.0743,2.6853 -14.5593,4.3627 -21.9812,5.9808 -1.139,0.2486 -3.4433,-1.6403 -4.1107,-3.0578 -1.7478,-3.7133 -4.3837,-5.7716 -8.3732,-6.1221 -20.1712,-1.7723 -39.1245,1.8458 -56.2517,13.0748 -6.1831,4.0542 -10.1294,9.8514 -12.5743,16.856 -1.6933,4.8508 -0.3311,8.3832 3.4316,11.425 6.4612,5.2232 14.0484,7.5279 22.132,8.1934 18.644,1.5354 36.5498,-0.7393 52.9256,-10.6974 1.6791,-1.0211 3.9246,-1.1111 5.9071,-1.6332 0.3124,2.3395 1.2653,4.8116 0.8139,6.993 -1.23,5.9434 -4.4807,10.97 -9.9811,13.6684 -31.6861,15.5443 -64.4128,17.4094 -97.9554,6.8482 -1.7321,-0.5453 -3.3616,-1.4482 -4.9931,-2.2751 -15.5548,-7.8835 -19.5388,-24.0555 -9.3684,-38.3642 10.2763,-14.4579 24.8109,-23.42 40.5847,-30.4868 19.9099,-8.92 41.1293,-11.8154 63.2273,-12.5485 z"
   id="path45" />
<path
   fill="#fff901"
   opacity="1"
   stroke="none"
   d="m 654.94771,492.09489 c -0.40173,-1.00342 -0.48742,-1.78924 -0.79345,-2.75744 -2.71509,-6.81043 -2.14405,-12.81238 2.6571,-18.43574 4.1081,-4.81164 6.99426,-10.77874 13.49048,-13.1239 0.75513,-0.27264 1.42053,-0.79565 2.125,-1.20672 7.95612,-4.64228 9.32654,-4.37628 15.25617,2.74609 -0.44788,-3.35705 -0.96857,-6.70679 -1.31025,-10.07465 -0.15057,-1.48388 -0.48993,-3.34692 0.19672,-4.4552 6.15631,-9.93701 14.02771,-18.12762 24.89691,-22.9696 5.6471,-2.51569 7.15772,-1.73285 9.41553,5.14917 0.48144,2.04108 1.0636,3.2973 1.07886,4.56036 0.21234,17.63581 0.73657,35.28119 0.34936,52.90583 -0.21857,9.94397 -1.71509,19.88971 -3.09235,29.77099 -1.76727,12.67884 -13.32849,22.8877 -26.06341,23.54401 -6.52399,0.33624 -8.23285,-1.22815 -7.15772,-7.07019 4.53302,-21.62311 6.21527,-43.034 2.93128,-64.63245 -0.23749,10.42206 0.24402,20.88184 -0.37195,31.27668 -0.62494,10.54687 -2.33343,21.02954 -3.68841,31.89508 -0.48749,1.44726 -0.77466,2.57421 -1.23279,3.62683 -4.95758,11.39013 -22.21936,18.89886 -32.41486,13.53985 -0.3175,-5.41809 -0.48926,-10.31665 -0.65491,-15.38745 0.0393,-0.73535 0.0725,-1.29846 0.10559,-1.86151 0.005,-0.83539 0.009,-1.67084 0.0966,-3.13544 0.94232,-2.74872 2.21302,-4.79797 2.58856,-6.99994 1.50446,-8.82061 4.90436,-17.53918 1.59192,-26.90466 z"
   id="path46" />
<path
   fill="#e1f293"
   opacity="1"
   stroke="none"
   d="m 782.86642,759.89926 c -2.08045,0.5777 -4.16089,1.1553 -6.85096,1.465 -29.14831,2.8664 -57.71252,5.1108 -86.42663,2.214 -0.31293,-0.032 -0.64539,0.1307 -0.96875,0.2025 0,0 0.0281,0.075 -0.27271,-0.1647 -2.89593,-0.4602 -5.49109,-0.6802 -8.08624,-0.9003 -14.45312,-2.3516 -29.03326,-4.1261 -43.3125,-7.268 -8.77155,-1.9301 -17.14484,-5.7943 -25.57507,-9.1009 -4.32538,-1.6964 -8.3653,-4.112 -12.56501,-6.1387 -17.47137,-8.4316 -30.37487,-21.0978 -38.17633,-39.1593 -9.3222,-21.5823 -21.81079,-41.1862 -38.65796,-57.8383 -1.93035,-1.908 -4.85974,-4.281 -1.42852,-7.5398 3.21228,-3.0508 6.05426,-1.8282 8.73401,0.7379 13.63189,13.0535 23.88415,28.5816 32.88025,45.023 0.63909,1.1679 1.2185,2.3687 2.0371,4.1132 0.61353,1.1672 1.01557,1.7751 1.41761,2.383 0,0 0.0222,-0.062 -0.0769,0.2628 0.28705,0.7977 0.67304,1.2705 1.05902,1.7433 0,0 0.0364,-0.058 -0.0964,0.2728 0.27197,0.798 0.67676,1.2653 1.08154,1.7327 0,0 0.0477,-0.057 -0.12561,0.3083 0.927,2.4719 2.02741,4.5791 3.12781,6.6862 0,0 0.049,-0.056 -0.10974,0.2771 0.26129,0.7997 0.68133,1.2666 1.10132,1.7336 0,0 0.0454,-0.061 -0.12293,0.2733 0.26276,0.7984 0.69385,1.2621 1.125,1.726 0,0 0.0483,-0.06 -0.10968,0.2701 0.26874,0.7947 0.69544,1.2598 1.12207,1.7249 0,0 0.046,-0.06 -0.0535,0.2842 0.59388,1.1631 1.28723,1.9824 1.98066,2.8017 0,0 0.0889,-0.043 0.0237,0.2849 0.46985,0.7806 1.00482,1.2336 1.53985,1.6867 3.13111,3.3546 5.96826,7.0552 9.44226,10.0061 18.862,16.022 41.52387,23.6863 65.24421,28.4819 49.39068,9.9856 98.57867,9.2023 147.55194,-3.2876 22.47107,-5.7308 41.61334,-16.3816 56.82,-34.1615 14.3653,-16.7961 32.1972,-29.4166 51.4186,-40.0022 12.6228,-6.9518 26.6349,-8.0654 40.7608,-7.654 2.5276,0.074 5.5377,0.2342 5.3006,4.323 -0.2085,3.5975 -2.2711,5.0311 -5.4484,5.2551 -5.4819,0.3863 -11.0649,0.089 -16.4461,1.0093 -15.9725,2.7328 -30.081,9.7895 -42.1344,20.4979 -12.5274,11.1295 -24.6808,22.6876 -36.81438,34.2509 -12.44293,11.8579 -27.24926,19.5059 -44.03119,25.0239 -2.88946,0.6164 -5.01709,1.3423 -7.14465,2.068 0,0 0.0537,0.039 -0.35596,-0.1325 -6.39898,1.2936 -12.38843,2.7591 -18.3778,4.2245 z"
   id="path47" />
<path
   fill="#fcf708"
   opacity="1"
   stroke="none"
   d="m 1194.6048,877.85606 c -3.925,6.1171 -8.8721,11.3527 -8.4189,19.0808 0.1675,2.8558 1.1783,3.9386 4.0187,4.5133 15.1259,3.0602 29.7619,0.865 44.2908,-3.4614 3.8085,-1.1343 7.7229,-2.1133 11.6551,-2.517 1.2666,-0.1299 3.8847,1.7501 3.9424,2.8156 0.3651,6.7531 0.1854,13.5359 0.1854,20.6819 -36.8216,0 -73.5491,0 -111.3273,0 1.065,-3.4511 1.7821,-6.258 2.7886,-8.9571 6.2462,-16.7512 16.6935,-31.0537 27.1765,-45.2168 6.993,-9.4481 14.9192,-18.2411 22.8776,-26.9145 2.0182,-2.1997 5.7328,-3.9231 8.7037,-3.9796 12.3053,-0.2339 24.6243,0.2478 36.9376,0.5013 0.6237,0.013 1.2406,0.3484 3.037,0.885 -2.555,2.6146 -4.4634,4.9638 -6.7565,6.8438 -8.7357,7.1622 -17.8382,13.8968 -26.3127,21.3493 -4.6934,4.1274 -8.4137,9.3609 -12.798,14.3754 z"
   id="path48" />
<path
   fill="#e3f495"
   opacity="1"
   stroke="none"
   d="m 846.47426,653.13146 c 0.69764,4.5214 1.94855,9.0369 1.99616,13.5651 0.19495,18.5391 -8.15753,32.352 -23.01123,43.3563 -17.9552,13.302 -38.60578,19.5439 -59.71265,24.5322 -9.63165,2.2763 -19.8045,2.4065 -29.75952,3.1281 -9.07001,0.6575 -18.19409,1.3424 -27.26532,1.0651 -26.78625,-0.8178 -53.31158,-4.1402 -77.85614,-15.4953 -17.62476,-8.1537 -31.3565,-21.1559 -35.58557,-41.0015 -1.35175,-6.3434 -0.0778,-13.8934 2.03833,-20.2063 6.08166,-18.144 16.98853,-33.2416 31.94611,-45.3224 1.54431,-1.2474 2.65374,-3.1419 4.33093,-4.0856 1.68951,-0.9505 4.45947,-2.11109 5.65692,-1.3798 2.83685,1.7324 2.65222,4.6277 0.28015,7.0533 -4.776,4.8839 -9.72394,9.6049 -14.38434,14.5955 -10.20147,10.9243 -17.14862,23.8753 -21.01117,38.1314 -2.6076,9.6243 0.91297,18.4906 7.35474,26.1712 8.9278,10.6448 20.70081,16.8119 33.33044,21.6738 18.99756,7.3131 38.77594,10.1702 59.04602,11.2905 28.44049,1.5722 56.28962,-1.526 83.16279,-10.4736 11.71588,-3.901 23.03741,-10.0763 33.27099,-17.0721 13.78259,-9.4221 20.64087,-23.6496 19.17493,-40.5021 -0.87439,-10.0523 -4.73834,-19.6586 -10.79077,-27.9752 -6.1897,-8.5052 -12.93048,-16.6106 -19.07636,-25.14578 -1.85303,-2.57336 -2.52545,-5.99682 -3.06225,-9.46612 8.10919,0.91168 12.46405,6.38134 17.0885,12.3023 0.69873,0.861 1.27118,1.0693 1.84356,1.2776 0,0 0.0376,-0.095 -0.0606,0.2432 0.28601,0.4634 0.6701,0.5883 1.05426,0.7132 0,0 -0.0749,-0.075 -0.20514,0.3208 1.27954,1.8234 2.68945,3.2516 4.09936,4.6798 0,0 0.21094,-10e-4 -0.056,0.328 2.53803,4.4246 5.3429,8.5202 8.14783,12.6159 0,0 0.0618,-0.046 -0.1521,0.2563 0.26367,0.7566 0.74121,1.2103 1.21881,1.664 0,0 0.0889,-0.075 -0.14142,0.3099 2.20966,6.5409 4.64972,12.6967 7.08978,18.8523 z"
   id="path49" />
<path
   fill="#e1f293"
   opacity="1"
   stroke="none"
   d="m 691.71944,692.74246 c 10.9856,0.4122 21.97119,0.8245 33.8794,1.2463 10.56793,-0.9984 20.22107,-1.9414 29.8504,-3.0848 1.43054,-0.1698 2.74884,-1.2848 4.11908,-1.9627 12.36218,-0.6757 24.31824,-2.9856 36.06641,-8.901 1.14282,-0.4265 1.62304,-0.7502 2.10327,-1.074 -6e-5,0 -0.066,-0.064 0.27343,0.142 0.80341,-0.243 1.26734,-0.6919 1.73133,-1.1407 0,0 -0.0704,-0.059 0.26922,0.1447 0.80134,-0.2492 1.26307,-0.7021 1.7248,-1.155 0,0 -0.0753,-0.066 0.30218,0.097 4.14618,-2.9294 7.91492,-6.0223 11.6836,-9.1153 0,0 -0.0576,-0.062 0.32208,-0.08 7.1333,-8.0742 7.393,-11.8479 1.68884,-19.0411 0,0 -0.0723,0.017 0.005,-0.3507 -1.24054,-1.8387 -2.55799,-3.3096 -3.87537,-4.7806 0,0 -0.1593,0.095 0.0833,-0.2741 -2.08124,-2.8139 -4.4049,-5.2582 -6.72863,-7.7024 -2.63788,-3.6569 -4.28992,-7.4447 -1.07404,-12.7127 2.28259,1.4078 4.75305,2.5623 6.78143,4.2486 7.4397,6.1849 12.82538,13.8635 15.86365,23.0941 3.46167,10.5168 -1.3031,23.1146 -12.54913,30.3849 -7.1883,4.6472 -15.24311,7.9539 -23.53461,12.041 -1.12659,0.4704 -1.62799,0.7616 -2.12933,1.0527 0,0 0.0739,0.029 -0.25446,-0.055 -1.13122,0.2967 -1.93402,0.6774 -2.73681,1.0581 0,0 0.0672,0.027 -0.26337,-0.058 -1.13068,0.2933 -1.93079,0.672 -2.7309,1.0506 0,0 0.0603,0.032 -0.34466,-0.083 -3.46607,0.6161 -6.49042,1.6497 -9.59449,2.0271 -17.22979,2.0957 -34.47894,4.032 -51.72149,6.023 -19.9776,-0.2416 -39.97156,-0.6128 -59.3559,-6.1849 -6.67224,-1.9181 -13.23602,-4.4629 -19.52661,-7.4102 -15.69403,-7.3529 -23.59973,-24.9967 -9.84515,-42.1664 5.34301,-6.6695 12.09899,-12.2324 18.40124,-18.0951 2.25141,-2.0946 5.06104,-2.6306 7.47864,0.1379 2.48877,2.85 -0.0254,4.6398 -1.63416,6.3127 -5.4085,5.6244 -11.02728,11.046 -16.47436,16.6343 -7.24616,7.4339 -7.70691,18.3839 -0.42127,23.2729 6.14453,4.1232 13.0279,7.1455 20.24561,10.8748 11.0816,2.0077 21.50201,3.7959 31.92236,5.584 z"
   id="path50" />
<path
   fill="#e2f294"
   opacity="1"
   stroke="none"
   d="m 506.40792,681.90306 c -1.70734,-4.1624 0.11841,-5.3004 3.56531,-4.7797 2.62115,0.3958 5.3006,0.8321 7.76843,1.7498 24.05475,8.946 40.07593,25.5749 47.60681,50.21 0.43622,1.4267 1.04944,2.9771 0.86475,4.3754 -0.29224,2.2134 -0.77808,4.6579 -2.05298,6.3473 -0.45258,0.5996 -3.57501,-0.4404 -5.26215,-1.2076 -12.40198,-5.6404 -24.58996,-11.7849 -37.16467,-17.0009 -9.70984,-4.0276 -19.7312,-4.2669 -29.50867,0.807 -2.02887,1.053 -5.28186,3.2604 -6.85284,-0.4857 -1.42664,-3.4022 -0.15106,-6.7821 3.22217,-8.5235 7.1231,-3.6775 14.72253,-5.1498 22.75055,-3.9294 12.45861,1.8946 24.28119,5.7052 35.41235,11.6338 2.00738,1.0692 4.03363,2.1027 7.18719,3.7438 -0.68225,-2.2313 -0.78222,-3.3138 -1.29834,-4.1348 -10.06994,-16.0151 -22.04553,-29.6704 -41.62487,-34.2325 -1.70905,-0.3983 -2.95728,-2.7741 -4.61304,-4.573 z"
   id="path51" />
<path
   fill="#e1f293"
   opacity="1"
   stroke="none"
   d="m 879.9022,633.51396 c 5.2845,-8.4232 9.938,-17.3467 16.0781,-25.09149 4.0066,-5.05365 10.103,-8.48792 15.4044,-12.45911 2.1023,-1.57471 4.3537,-1.68176 5.7649,1.22754 1.2017,2.47699 2.5208,4.96155 -0.7566,6.8949 -16.89,9.96376 -26.2749,25.49046 -32.3204,43.50736 -0.3173,0.9454 -0.5917,1.9733 -1.1721,2.749 -1.4967,2 -3.6033,5.7049 -4.658,5.4453 -2.5658,-0.6317 -5.5858,-2.6395 -6.8169,-4.9491 -8.0698,-15.1398 -8.9954,-30.7971 -1.6307,-46.48907 0.7642,-1.62824 3.9289,-3.34168 5.6485,-3.05158 3.3497,0.56482 3.0284,3.48132 2.3106,6.39435 -1.5797,6.41 -2.8035,12.9079 -4.1293,20.1548 0.3571,1.8887 0.671,2.9924 0.9848,4.0961 0,0 0.023,-0.083 -0.091,0.3213 0.5389,3.5308 1.1921,6.657 1.8453,9.7833 0.3427,-0.025 0.6855,-0.051 1.0283,-0.076 0.8366,-2.8191 1.6733,-5.6381 2.51,-8.4571 z"
   id="path52" />
<path
   fill="#ebf261"
   opacity="1"
   stroke="none"
   d="m 795.40658,448.96867 c 5.63879,-5.05408 12.42743,-4.91418 17.48211,0.68384 6.8982,7.63983 10.28748,16.69867 9.28693,27.02069 -0.99396,10.25531 -2.10803,20.51984 -3.75665,30.685 -1.66657,10.27575 -6.5246,19.14483 -13.84033,26.60241 -2.68256,2.73456 -5.18653,5.71088 -8.17243,8.07001 -13.88672,10.97144 -20.05975,25.86017 -21.66547,42.87817 -1.67242,17.72443 -3.20807,35.48247 -3.97052,53.26147 -0.28985,6.7582 -2.81042,10.2101 -8.73565,12.7451 -12.79126,5.4727 -26.20533,7.6829 -39.90216,7.987 -15.37226,0.3412 -30.57935,-1.3484 -45.24158,-6.4289 -10.18909,-3.5305 -10.65967,-4.3027 -10.2464,-15.0477 0.32636,-8.4853 0.56427,-16.9758 0.71307,-25.4661 0.20935,-11.94973 -3.72473,-22.53085 -10.90588,-32.43093 -0.0263,-0.43396 0.28772,-0.73017 0.56421,-0.54071 7.93774,9.46765 12.34161,20.11291 12.51239,32.13704 0.1319,9.2903 -0.66797,18.5909 -0.91064,27.8907 -0.11561,4.4299 1.23431,8.3291 5.70141,10.1771 3.52014,1.4564 7.09815,2.9814 10.80109,3.7522 17.38842,3.6191 34.95959,3.3147 52.5321,1.7648 8.12006,-0.7162 16.17127,-1.8809 23.30499,-6.3931 3.49994,-2.2139 6.38001,-4.6986 6.79938,-9.2063 1.61231,-17.3335 2.84155,-34.72016 5.10706,-51.96973 1.70434,-12.9762 3.89172,-26.12738 13.05627,-36.53418 3.73682,-4.24341 8.02759,-7.99964 11.75604,-12.24964 8.60401,-9.80773 16.71125,-20.09851 18.74647,-33.4472 1.62103,-10.63251 2.75653,-21.40063 3.08636,-32.13995 0.1452,-4.72815 -1.54248,-9.86957 -3.63056,-14.23352 -4.09576,-8.55994 -12.93853,-12.29078 -20.11297,-9.38837 0,0 -0.22846,-0.14374 -0.35864,-0.1792 z"
   id="path53" />
<path
   fill="#e2f294"
   opacity="1"
   stroke="none"
   d="m 870.5094,729.28906 c -3.6048,1.8851 -7.123,2.2778 -11.0077,-0.7841 4.2964,-7.0648 10.0169,-12.3857 17.0236,-16.3058 12.4877,-6.9865 26.3088,-9.0634 40.2665,-10.1088 8.6009,-0.644 17.2671,-0.4832 25.9049,-0.539 8.4402,-0.055 8.6048,0.2108 7.4799,9.4141 -7.8276,0.1656 -14.9844,-0.2179 -22.1165,0.054 -14.4827,0.5511 -28.9857,1.5567 -42.3913,7.7522 -4.3501,2.0105 -8.1237,5.2683 -12.161,7.9557 0,0 0.029,0.065 -0.3102,-0.031 -1.122,0.8006 -1.9051,1.6969 -2.6882,2.5933 z"
   id="path54" />
<path
   fill="#e2f294"
   opacity="1"
   stroke="none"
   d="m 907.2284,646.41976 c -6.1907,8.0381 -12.1275,15.8211 -18.0583,23.6088 -1.406,1.8462 -2.4728,4.1721 -4.286,5.4178 -1.4975,1.0288 -3.867,0.7882 -5.8502,1.11 -0.2036,-1.6621 -1.0951,-3.6336 -0.5074,-4.9398 8.5825,-19.0786 19.7348,-35.7804 40.7503,-43.222 5.0224,-1.7784 9.83,-1.5152 14.5123,0.5999 1.8725,0.8459 3.9093,2.2359 4.8658,3.942 0.9231,1.6467 0.5509,4.0192 0.7476,6.0729 -1.734,0.1139 -3.6712,0.7916 -5.1691,0.2512 -10.5618,-3.8094 -19.1877,-0.6347 -27.005,7.1592 z"
   id="path55" />
<path
   fill="#e1f293"
   opacity="1"
   stroke="none"
   d="m 570.27682,629.02586 c 2.50311,6.6918 5.03472,13 7.07324,19.4637 1.02496,3.2502 0.474,6.7017 -3.89111,6.9084 -1.53467,0.073 -4.25031,-1.4916 -4.57264,-2.7743 -2.81067,-11.1847 -7.72839,-21.1453 -15.69183,-29.5507 -0.56348,-0.5948 -1.27313,-1.3096 -1.36835,-2.0398 -0.25909,-1.988 -0.22497,-4.0141 -0.30713,-6.0251 2.14948,0.021 5.14594,-0.8584 6.29816,0.2245 4.41595,4.1496 8.23969,8.9293 12.45966,13.7933 z"
   id="path56" />
<path
   fill="#ebf261"
   opacity="1"
   stroke="none"
   d="m 650.55892,531.16868 c 0.17175,4.89856 0.34351,9.79712 0.22827,14.95557 -0.57379,0.10022 -0.86066,-0.0594 -1.20264,-0.37354 -0.20208,-0.28119 -0.34893,-0.40802 -0.49585,-0.53479 0.20338,0.21167 0.40681,0.42328 0.56232,1.0116 0.41065,1.58264 0.86914,2.78857 0.93366,3.94946 -1.24933,1.20032 -2.70771,2.37781 -2.85663,3.70246 -0.6897,6.13189 -0.31293,12.12841 3.67975,17.34338 1.87561,2.44989 3.56036,5.0459 5.33154,7.57574 0,0 -0.31403,0.29621 -0.47388,0.44129 -7.07562,-7.3006 -13.164,-15.18085 -11.40948,-26.22308 0.5238,-3.29694 2.11902,-6.41248 3.05615,-9.65931 0.53443,-1.85131 0.73126,-3.8001 1.22516,-6.3648 0.21234,-1.69989 0.2796,-2.73981 0.34692,-3.77979 0.0818,-0.3341 0.16364,-0.66827 0.49713,-1.4765 0.25171,-0.47412 0.57758,-0.56769 0.57758,-0.56769 z"
   id="path57" />
<path
   fill="#346163"
   opacity="1"
   stroke="none"
   d="m 873.8639,726.71456 c 3.6812,-2.675 7.4548,-5.9328 11.8049,-7.9433 13.4056,-6.1955 27.9086,-7.2011 42.3913,-7.7522 7.1321,-0.2715 14.2889,0.112 21.8755,0.2607 -8.1318,0.5477 -16.6994,1.181 -25.2787,1.4894 -17.9365,0.6445 -35.1892,3.6212 -50.793,13.9454 z"
   id="path58" />
<path
   fill="#346163"
   opacity="1"
   stroke="none"
   d="m 688.93026,764.05076 c 0.0132,-0.3418 0.34564,-0.504 0.65857,-0.4725 28.71411,2.8968 57.27832,0.6524 86.06469,-2.1681 -6.78735,1.3226 -13.79766,2.9311 -20.86218,3.2215 -17.23602,0.7087 -34.49628,0.9258 -51.74896,1.0712 -4.59638,0.039 -9.20105,-0.8949 -14.11212,-1.6521 z"
   id="path59" />
<path
   fill="#346163"
   opacity="1"
   stroke="none"
   d="m 721.36483,703.81786 c 16.80676,-2.0264 34.05591,-3.9627 51.2857,-6.0584 3.10407,-0.3774 6.12842,-1.411 9.60401,-2.0596 -7.35706,2.0864 -15.02588,4.9724 -22.92377,5.8928 -12.42895,1.4488 -25.01221,1.5747 -37.96594,2.2252 z"
   id="path60" />
<path
   fill="#346163"
   opacity="1"
   stroke="none"
   d="m 759.17074,688.94496 c -0.97266,0.6742 -2.29096,1.7892 -3.7215,1.959 -9.62933,1.1434 -19.28247,2.0864 -29.38947,3.0179 6.52125,-1.0471 13.50885,-1.9858 20.48523,-3.001 4.08527,-0.5946 8.15271,-1.3108 12.62574,-1.9759 z"
   id="path61" />
<path
   fill="#346163"
   opacity="1"
   stroke="none"
   d="m 691.4443,692.47096 c -10.14521,-1.5166 -20.56562,-3.3048 -31.24976,-5.3045 10.14911,1.5368 20.56189,3.2849 31.24976,5.3045 z"
   id="path62" />
<path
   fill="#346163"
   opacity="1"
   stroke="none"
   d="m 815.64815,649.21096 c 5.78949,6.8005 5.52979,10.5742 -1.56848,18.6721 -0.3117,-0.6024 -0.54407,-1.5105 -0.20575,-1.8504 5.02313,-5.0453 4.1604,-10.6444 1.77423,-16.8217 z"
   id="path63" />
<path
   fill="#346163"
   opacity="1"
   stroke="none"
   d="m 846.54146,652.70556 c -2.50726,-5.7297 -4.94732,-11.8855 -7.2124,-18.4083 2.54315,5.7494 4.91138,11.8659 7.2124,18.4083 z"
   id="path64" />
<path
   fill="#346163"
   opacity="1"
   stroke="none"
   d="m 838.49569,631.67906 c -2.84143,-3.7258 -5.6463,-7.8214 -8.28839,-12.2618 2.88354,3.7341 5.60424,7.813 8.28839,12.2618 z"
   id="path65" />
<path
   fill="#346163"
   opacity="1"
   stroke="none"
   d="m 813.3702,667.88546 c -3.41632,3.1469 -7.18506,6.2398 -11.30847,9.2139 3.41552,-3.1686 7.18579,-6.2183 11.30847,-9.2139 z"
   id="path66" />
<path
   fill="#346163"
   opacity="1"
   stroke="none"
   d="m 879.6352,633.74086 c -0.5697,2.5921 -1.4064,5.4111 -2.243,8.2302 -0.3428,0.025 -0.6856,0.051 -1.0283,0.076 -0.6532,-3.1263 -1.3064,-6.2525 -1.8871,-9.7943 1.4924,0.7163 1.3749,5.3266 5.1584,1.4876 z"
   id="path67" />
<path
   fill="#346163"
   opacity="1"
   stroke="none"
   d="m 783.2875,759.90426 c 5.56829,-1.4704 11.55774,-2.9359 17.95849,-4.2628 -5.57153,1.5149 -11.5545,2.8912 -17.95849,4.2628 z"
   id="path68" />
<path
   fill="#346163"
   opacity="1"
   stroke="none"
   d="m 805.39901,636.03366 c 2.14197,2.121 4.46563,4.5653 6.63489,7.3497 -2.25403,-2.1153 -4.35364,-4.5708 -6.63489,-7.3497 z"
   id="path69" />
<path
   fill="#346163"
   opacity="1"
   stroke="none"
   d="m 830.4219,618.75636 c -1.46442,-1.0795 -2.87433,-2.5077 -4.18659,-4.2896 1.47876,1.0777 2.85993,2.5093 4.18659,4.2896 z"
   id="path70" />
<path
   fill="#346163"
   opacity="1"
   stroke="none"
   d="m 570.60183,698.56446 c -1.11804,-1.7376 -2.21845,-3.8448 -3.18244,-6.3155 1.15766,1.7395 2.17884,3.8427 3.18244,6.3155 z"
   id="path71" />
<path
   fill="#346163"
   opacity="1"
   stroke="none"
   d="m 811.8431,644.04196 c 1.33691,1.116 2.65436,2.5869 3.92908,4.4082 -1.34455,-1.1175 -2.64655,-2.5853 -3.92908,-4.4082 z"
   id="path72" />
<path
   fill="#346163"
   opacity="1"
   stroke="none"
   d="m 680.62044,762.96606 c 2.23584,-0.03 4.831,0.1898 7.76447,0.6355 -2.2428,0.022 -4.82398,-0.1817 -7.76447,-0.6355 z"
   id="path73" />
<path
   fill="#346163"
   opacity="1"
   stroke="none"
   d="m 801.98806,755.83986 c 1.73968,-0.7583 3.86731,-1.4842 6.37066,-2.0728 -1.74377,0.7931 -3.86328,1.4492 -6.37066,2.0728 z"
   id="path74" />
<path
   fill="#656c24"
   opacity="1"
   stroke="none"
   d="m 650.56502,530.99644 c -0.006,0.17224 -0.33197,0.26581 -0.49786,0.23108 -0.0372,-0.69617 0.0916,-1.3576 0.41193,-2.05585 0.15838,0.52631 0.12518,1.08942 0.0859,1.82477 z"
   id="path75" />
<path
   fill="#656c24"
   opacity="1"
   stroke="none"
   d="m 649.3055,533.42607 c 0.11139,0.82678 0.0441,1.8667 -0.13922,3.07959 -0.0905,-0.84021 -0.065,-1.85327 0.13922,-3.07959 z"
   id="path76" />
<path
   fill="#346163"
   opacity="1"
   stroke="none"
   d="m 870.8158,729.12986 c 0.4767,-0.7372 1.2598,-1.6335 2.4084,-2.4574 -0.457,0.8145 -1.2795,1.5563 -2.4084,2.4574 z"
   id="path77" />
<path
   fill="#346163"
   opacity="1"
   stroke="none"
   d="m 575.51186,707.69406 c -0.68793,-0.4885 -1.38128,-1.3078 -2.01202,-2.4632 0.71057,0.4868 1.35852,1.3096 2.01202,2.4632 z"
   id="path78" />
<path
   fill="#346163"
   opacity="1"
   stroke="none"
   d="m 874.6167,631.58566 c -0.321,-0.7464 -0.6349,-1.8501 -0.9031,-3.3037 0.3338,0.7489 0.622,1.8476 0.9031,3.3037 z"
   id="path79" />
<path
   fill="#346163"
   opacity="1"
   stroke="none"
   d="m 782.93392,695.83246 c 0.45587,-0.3958 1.25598,-0.7745 2.39984,-1.1018 -0.45605,0.4074 -1.2558,0.7632 -2.39984,1.1018 z"
   id="path80" />
<path
   fill="#346163"
   opacity="1"
   stroke="none"
   d="m 785.92855,694.83596 c 0.45819,-0.3942 1.26099,-0.7749 2.40613,-1.1088 -0.45899,0.4051 -1.26026,0.7635 -2.40613,1.1088 z"
   id="path81" />
<path
   fill="#346163"
   opacity="1"
   stroke="none"
   d="m 576.91427,709.71236 c -0.36841,-0.169 -0.90338,-0.622 -1.39478,-1.4469 0.43842,0.1398 0.83325,0.6513 1.39478,1.4469 z"
   id="path82" />
<path
   fill="#346163"
   opacity="1"
   stroke="none"
   d="m 573.58217,704.63146 c -0.41857,-0.1576 -0.84527,-0.6227 -1.15216,-1.4137 0.46125,0.1512 0.80268,0.6288 1.15216,1.4137 z"
   id="path83" />
<path
   fill="#346163"
   opacity="1"
   stroke="none"
   d="m 572.5732,702.63586 c -0.42651,-0.1558 -0.8576,-0.6195 -1.15832,-1.4144 0.47149,0.1479 0.81262,0.6272 1.15832,1.4144 z"
   id="path84" />
<path
   fill="#346163"
   opacity="1"
   stroke="none"
   d="m 571.57296,700.63636 c -0.41718,-0.1587 -0.83722,-0.6256 -1.13544,-1.4225 0.45874,0.1516 0.79566,0.6328 1.13544,1.4225 z"
   id="path85" />
<path
   fill="#346163"
   opacity="1"
   stroke="none"
   d="m 788.87618,693.81236 c 0.20038,-0.2844 0.70178,-0.5756 1.50781,-0.8636 -0.19915,0.2874 -0.703,0.5722 -1.50781,0.8636 z"
   id="path86" />
<path
   fill="#346163"
   opacity="1"
   stroke="none"
   d="m 567.58065,691.63046 c -0.40344,-0.1584 -0.80823,-0.6257 -1.11438,-1.4244 0.43671,0.151 0.77484,0.6333 1.11438,1.4244 z"
   id="path87" />
<path
   fill="#346163"
   opacity="1"
   stroke="none"
   d="m 566.59872,689.62206 c -0.38782,-0.1609 -0.77381,-0.6337 -1.09388,-1.4313 0.40924,0.1566 0.75244,0.6381 1.09388,1.4313 z"
   id="path88" />
<path
   fill="#346163"
   opacity="1"
   stroke="none"
   d="m 565.59933,687.56746 c -0.38666,-0.2475 -0.7887,-0.8554 -1.12244,-1.8404 0.41455,0.242 0.76086,0.8611 1.12244,1.8404 z"
   id="path89" />
<path
   fill="#346163"
   opacity="1"
   stroke="none"
   d="m 797.43392,678.94686 c -0.17615,0.3432 -0.65637,0.6669 -1.48169,0.923 0.16248,-0.3591 0.67004,-0.6508 1.48169,-0.923 z"
   id="path90" />
<path
   fill="#346163"
   opacity="1"
   stroke="none"
   d="m 799.43123,677.95986 c -0.15246,0.4565 -0.61639,0.9054 -1.40875,1.193 0.14679,-0.5079 0.62201,-0.8543 1.40875,-1.193 z"
   id="path91" />
<path
   fill="#346163"
   opacity="1"
   stroke="none"
   d="m 801.42446,676.94876 c -0.14941,0.4614 -0.61114,0.9143 -1.39935,1.2075 0.14471,-0.5119 0.6159,-0.864 1.39935,-1.2075 z"
   id="path92" />
<path
   fill="#346163"
   opacity="1"
   stroke="none"
   d="m 839.54647,633.65176 c -0.49817,-0.1362 -0.97571,-0.5899 -1.26648,-1.3741 0.55365,0.1319 0.92041,0.5942 1.26648,1.3741 z"
   id="path93" />
<path
   fill="#346163"
   opacity="1"
   stroke="none"
   d="m 825.39925,612.86376 c -0.49212,0.076 -1.06457,-0.1323 -1.64007,-0.6716 0.51788,-0.092 1.03888,0.1478 1.64007,0.6716 z"
   id="path94" />
<path
   fill="#346163"
   opacity="1"
   stroke="none"
   d="m 826.40566,613.83686 c -0.31665,0.1427 -0.70074,0.018 -1.03693,-0.4561 0.35517,-0.1699 0.6623,0.01 1.03693,0.4561 z"
   id="path95" />
<path
   fill="#fff901"
   opacity="1"
   stroke="none"
   d="m 657.01583,578.98802 c -2.04767,-2.7193 -3.73242,-5.31531 -5.60803,-7.7652 -3.99268,-5.21497 -4.36945,-11.21149 -3.67975,-17.34338 0.14892,-1.32465 1.6073,-2.50214 3.12726,-3.57697 13.98547,2.00702 24.57397,-2.93494 32.86322,-13.034 12.75372,5.61951 29.43298,-1.44323 34.80285,-14.99511 1.51093,-3.81317 3.54877,-4.80994 7.23658,-5.05377 8.24493,-0.54517 16.05108,-2.73768 23.22723,-7.42762 -0.4245,4.38983 -1.07886,8.57306 -1.98242,12.70185 -1.25623,5.74047 -2.69922,11.44006 -4.06232,17.15716 0.46521,0.10572 0.93048,0.21149 1.39575,0.3172 2.05677,-7.79028 4.1463,-15.5722 6.14679,-23.37695 0.48871,-1.90631 0.68494,-3.8877 1.08252,-6.22626 2.04627,-1.41809 3.92432,-2.91449 6.02716,-3.36737 3.75537,-0.80859 7.64636,-0.98761 11.48059,-1.42975 -0.05,-0.28131 -0.10003,-0.56268 -0.15008,-0.84405 -5.16645,0.29358 -10.33295,0.58716 -16.03137,0.91089 0.71661,-2.38105 1.23303,-4.09681 1.95056,-6.08551 1.65289,-4.33045 3.58618,-8.17902 8.29992,-8.90473 5.36878,-0.82654 10.81733,-1.2699 16.24646,-1.47314 1.33722,-0.05 3.6626,1.28326 3.88013,2.32568 0.30902,1.48139 -0.48266,3.68384 -1.57788,4.85376 -1.72119,1.8385 -4.0874,3.07312 -6.18042,4.56348 4.96869,-0.82562 8.6239,-3.10401 9.85077,-8.28308 0.77136,-3.25647 0.27264,-5.17298 -3.6687,-4.96607 -4.98548,0.26154 -9.98572,0.45807 -14.9751,0.38355 -10.55505,-0.15747 -10.55389,-0.23712 -13.138,10.16851 -1.31189,3.24341 -1.70313,7.27143 -3.8739,8.84607 -8.1944,5.94404 -17.56915,8.84742 -28.08087,8.27991 0,-1.52679 -0.0265,-2.49847 0.004,-3.46838 0.78015,-24.93933 1.62665,-49.87683 2.28015,-74.81946 0.0883,-3.37 -0.7879,-6.76526 -1.2174,-10.14886 0.41705,-4.83399 -0.56653,-10.46003 1.60577,-14.3014 2.71613,-4.80291 8.02716,-8.13824 12.73932,-12.44818 6.50812,-3.12707 12.64539,-4.63037 19.20508,-2.53253 0.47613,4.44952 0.95233,8.89899 1.37097,14.20953 1.09271,10.51441 2.24286,20.16791 3.32062,30.27259 -1.13984,8.47479 -2.20728,16.49835 -3.32001,24.862 1.66388,-0.26276 2.57092,-0.40601 2.73822,-0.43244 0.34997,-3.39325 0.73834,-6.26971 0.92511,-9.15918 0.35651,-5.51727 0.59814,-11.04199 0.90106,-16.90014 -0.0544,-0.77857 -0.12237,-1.22065 -0.0566,-1.9491 -0.0626,-1.07239 -0.25903,-1.85828 -0.47265,-3.09515 -0.7002,-8.17182 -1.38318,-15.89264 -2.06617,-23.61347 0.0402,-5.3916 0.0803,-10.78314 0.6305,-16.62744 10.57635,-6.60315 20.95941,-10.14295 32.47693,-4.33063 0,0 -0.0389,0.01 -0.0521,0.3841 1.2818,5.88757 2.57679,11.40094 3.87177,16.91424 -0.79419,10.56659 -1.71485,21.12604 -2.30457,31.70404 -0.17431,3.12824 0.58521,6.30847 1.23865,9.37476 7.49634,-2.99256 16.33911,0.73828 20.43487,9.29822 2.08808,4.36395 3.77576,9.50537 3.63056,14.23352 -0.32983,10.73932 -1.46533,21.50744 -3.08636,32.13995 -2.03522,13.34869 -10.14246,23.63947 -18.74647,33.4472 -3.72845,4.25 -8.01922,8.00623 -11.75604,12.24964 -9.16455,10.4068 -11.35193,23.55798 -13.05627,36.53418 -2.26551,17.24957 -3.49475,34.63623 -5.10706,51.96973 -0.41937,4.5077 -3.29944,6.9924 -6.79938,9.2063 -7.13372,4.5122 -15.18493,5.6769 -23.30499,6.3931 -17.57251,1.5499 -35.14368,1.8543 -52.5321,-1.7648 -3.70294,-0.7708 -7.28095,-2.2958 -10.80109,-3.7522 -4.4671,-1.848 -5.81702,-5.7472 -5.70141,-10.1771 0.24267,-9.2998 1.04254,-18.6004 0.91064,-27.8907 -0.17078,-12.02413 -4.57465,-22.66939 -12.51239,-32.13704 z"
   id="path96" />
<path
   fill="#656c24"
   opacity="1"
   stroke="none"
   d="m 748.64419,509.56108 c -6.83515,4.92083 -14.6413,7.11334 -22.88623,7.65851 -3.68781,0.24383 -5.72565,1.2406 -7.23658,5.05377 -5.36987,13.55188 -22.04913,20.61462 -34.80285,14.99511 -8.28925,10.09906 -18.87775,15.04102 -32.46912,13.07905 -0.72925,-1.33143 -1.18774,-2.53736 -1.61591,-4.10938 0.0305,-0.36609 0.006,-0.33295 0.006,-0.33295 0.2868,0.15961 0.57367,0.31928 1.29321,0.73853 10.48249,5.09918 27.74427,-2.40955 32.70185,-13.79968 0.45813,-1.05262 0.7453,-2.17957 1.44311,-3.10016 0.45178,0.52972 0.57227,0.88745 0.69275,1.24524 -0.84912,5.53082 0.85974,7.09521 7.38373,6.75897 12.73492,-0.65631 24.29614,-10.86517 26.06341,-23.54401 1.37726,-9.88128 2.87378,-19.82702 3.09235,-29.77099 0.38721,-17.62464 -0.13702,-35.27002 -0.34936,-52.90583 -0.0153,-1.26306 -0.59742,-2.51928 -1.03162,-4.16375 0.30237,-0.38764 0.72021,-0.39026 1.45019,-0.42493 0.74152,3.35144 1.61768,6.7467 1.52942,10.1167 -0.6535,24.94263 -1.5,49.88013 -2.28015,74.81946 -0.0303,0.96991 -0.004,1.94159 -0.004,3.46838 10.51172,0.56751 19.88647,-2.33587 28.08087,-8.27991 2.17077,-1.57464 2.56201,-5.60266 4.12244,-8.69879 0.50579,0.35614 0.65954,0.90692 0.81323,1.45771 -0.51648,1.71575 -1.0329,3.43151 -1.74951,5.81256 5.69842,-0.32373 10.86492,-0.61731 16.03137,-0.91089 0.0501,0.28137 0.10003,0.56274 0.15008,0.84405 -3.83423,0.44214 -7.72522,0.62116 -11.48059,1.42975 -2.10284,0.45288 -3.98089,1.94928 -6.21759,3.15924 -1.08191,-0.0762 -1.90637,-0.336 -2.73089,-0.59576 z"
   id="path97" />
<path
   fill="#ebf261"
   opacity="1"
   stroke="none"
   d="m 792.6567,390.51713 c -11.48468,-5.46857 -21.86774,-1.92877 -32.25745,4.23371 -0.11249,-0.43695 0.0331,-0.93335 0.31903,-1.32807 5.20795,-7.18988 25.32117,-9.23028 31.93842,-2.90564 z"
   id="path98" />
<path
   fill="#ebf261"
   opacity="1"
   stroke="none"
   d="m 756.22396,397.30955 c -6.54211,-1.78308 -12.67938,-0.27978 -19.03858,2.53028 3.4676,-2.26734 7.17194,-4.84076 11.18616,-6.76941 3.88471,-1.86628 6.53321,-0.0115 7.85242,4.23913 z"
   id="path99" />
<path
   fill="#656c24"
   opacity="1"
   stroke="none"
   d="m 761.00551,441.65526 c -1.15014,-9.65351 -2.30029,-19.30701 -3.36346,-29.39838 0.50055,-0.39234 0.914,-0.34668 1.63379,-0.36951 0.98926,7.65241 1.67224,15.37323 2.32104,23.84467 0.10724,1.52771 0.24878,2.30487 0.39026,3.08197 0.068,0.44201 0.13593,0.88409 0.0228,1.73102 -0.45557,0.64001 -0.72998,0.87512 -1.00446,1.11023 z"
   id="path100" />
<path
   fill="#ebf261"
   opacity="1"
   stroke="none"
   d="m 796.57454,407.74669 c -1.36028,-5.10077 -2.65527,-10.61414 -3.93066,-16.52076 1.35321,3.45508 2.68683,7.30353 4.10596,11.61414 0.0204,1.80615 -0.0448,3.15008 -0.1753,4.90662 z"
   id="path101" />
<path
   fill="#0178bb"
   opacity="1"
   stroke="none"
   d="m 984.0172,48.200846 c -4.2677,2.89895 -8.0905,5.8746 -12.297,8.13626 -3.8563,2.0733 -4.252,4.82492 -3.5694,8.65173 1.1039,6.19007 1.851,12.44605 2.6481,18.68704 0.2042,1.59809 0.031,3.24439 0.031,4.86857 -0.5168,0.3338 -1.0334,0.66763 -1.5501,1.00146 -1.2706,-1.34219 -3.2994,-2.50168 -3.675,-4.0596 -1.315,-5.45609 -2.0283,-11.05536 -3.0413,-16.58722 -0.2937,-1.60471 -0.8252,-3.16586 -1.3774,-5.23245 -6.6293,1.40838 -11.3262,5.12124 -15.132,10.035 -2.7342,3.53055 -4.8988,7.51325 -7.7348,10.94995 -1.6827,2.03904 -4.175,3.40994 -6.3031,5.08124 -0.4283,-0.45166 -0.8565,-0.90335 -1.2847,-1.35501 2.5096,-3.73956 5.1106,-7.42163 7.5117,-11.22965 6.7996,-10.78396 13.3702,-21.71606 20.3624,-32.3724 1.948,-2.96881 5.0473,-5.18228 7.6183,-7.74228 0.4453,0.39474 0.8906,0.78949 1.336,1.18423 -4.3478,7.15534 -8.6956,14.31064 -13.0434,21.46598 15.9137,-4.36521 26.2218,-18.81952 43.1959,-20.29636 -4.4725,2.85968 -8.9449,5.71933 -13.695,8.81351 z"
   id="path102" />
<path
   fill="#0178bb"
   opacity="1"
   stroke="none"
   d="m 884.8784,88.235696 c 10.0743,-16.0882 20.1186,-32.19556 30.2942,-48.21951 0.6474,-1.01957 2.3147,-1.39148 3.5075,-2.0647 0.3976,0.29498 0.7952,0.58996 1.1928,0.88495 -3.9251,7.15072 -7.85,14.30145 -11.7749,21.45218 0.2688,0.28723 0.5377,0.57446 0.8065,0.86172 4.962,-3.09869 9.9608,-6.1402 14.8761,-9.31143 5.4248,-3.50009 10.7595,-7.13953 16.1589,-10.67938 3.6089,-2.36594 7.3371,-3.50446 10.9538,-1.02503 -8.8183,5.50699 -17.6508,11.25916 -26.7353,16.58112 -3.6966,2.16565 -4.1251,4.52841 -3.2646,8.44778 1.6101,7.3342 2.5155,14.82312 3.7869,22.69806 -2.6526,0 -4.0568,0 -5.6714,0 -1.2921,-7.95492 -2.5775,-15.86835 -3.9445,-24.28354 -7.4879,3.03842 -13.1852,6.79972 -17.5466,12.75873 -3.2833,4.48596 -7.2774,8.4516 -11.5431,12.48624 -0.7575,-0.30417 -0.9269,-0.44568 -1.0963,-0.58719 z"
   id="path103" />
<path
   fill="#0178bb"
   opacity="1"
   stroke="none"
   d="m 882.7537,68.411166 c 2.4639,10.8487 -10.6959,19.48041 -19.3419,20.29371 -4.8469,0.4559 -9.99155,0.12945 -14.70255,-1.0455 -4.42035,-1.10245 -5.55438,-5.29438 -5.04468,-9.63975 0.45508,-3.87982 3.2735,-5.21301 6.32733,-6.32412 0.4076,0.60186 0.60883,0.77154 0.57892,0.87295 -2.63263,8.91458 -1.2514,13.17191 11.32158,11.82871 4.6488,-0.49665 9.4106,-3.75531 13.2591,-6.83225 3.7432,-2.99286 2.9802,-5.91543 -1.1085,-8.80243 -3.505,-2.47488 -7.2023,-4.68716 -10.6228,-7.26968 -3.9899,-3.01242 -3.9556,-7.10315 -2.0047,-11.17407 4.7318,-9.87281 19.5532,-15.06162 29.4863,-10.54587 2.9146,1.32504 5.1227,2.99405 5.0072,6.59009 -0.1164,3.62649 -0.5971,6.98309 -5.0273,8.37701 -0.4121,-0.84793 -1.0803,-1.63931 -1.1665,-2.48962 -0.892,-8.80616 -6.7141,-12.28638 -14.9483,-8.58698 -2.36,1.0603 -4.6156,2.72425 -6.4062,4.6008 -3.4543,3.62027 -3.0694,7.43219 1.1293,10.55197 3.2965,2.4494 7.031,4.30222 10.4937,6.53946 1.0413,0.67276 1.8239,1.74607 2.77,3.05557 z"
   id="path104" />
<path
   fill="#0178bb"
   opacity="1"
   stroke="none"
   d="m 885.6339,88.880596 c -0.3661,0.42514 -0.9794,0.62997 -1.5928,0.83484 0.1374,-0.35502 0.2749,-0.71003 0.6248,-1.27234 0.3819,-0.0659 0.5513,0.0756 0.968,0.4375 z"
   id="path105" />
<path
   fill="#047ec5"
   opacity="1"
   stroke="none"
   d="m 638.82436,848.92036 c 12.67108,-2.0029 24.88629,-1.5125 37.01154,0.9275 3.49609,0.7036 4.32129,3.6293 1.53613,6.179 -2.51086,2.2984 -5.52655,4.5791 -8.71594,5.51 -13.84595,4.0421 -27.82056,7.6507 -41.78992,11.256 -2.5589,0.6606 -5.31061,0.5738 -8.00134,0.8346 -0.31427,-9.9512 9.1311,-21.4765 19.95953,-24.7071 z"
   id="path106" />
<path
   fill="#047ec5"
   opacity="1"
   stroke="none"
   d="m 453.212,873.43496 c 12.17639,-11.7331 26.66003,-18.6043 42.32043,-23.1191 7.5445,-2.175 21.46051,3.7825 25.22028,10.152 4.61078,7.8113 2.63592,20.5189 -3.71045,27.6116 -8.65442,9.6721 -19.89362,12.3685 -32.06641,12.4524 -8.95947,0.062 -17.93927,-0.3117 -26.87768,-0.9461 -3.5987,-0.2555 -7.2284,-1.421 -10.62867,-2.7312 -3.17016,-1.2214 -4.35229,-7.7075 -1.99993,-12.0797 2.10259,-3.9079 4.96331,-7.4079 7.74243,-11.3399 z"
   id="path107" />
<path
   fill="#8f9a1b"
   opacity="1"
   stroke="none"
   d="m 685.99666,530.6779 c -0.34649,-0.0466 -0.46698,-0.4043 -0.79779,-1.28876 1.02369,-11.03747 2.73218,-21.52014 3.35712,-32.06701 0.61597,-10.39484 0.13446,-20.85462 0.37195,-31.27668 3.28399,21.59845 1.60174,43.00934 -2.93128,64.63245 z"
   id="path108" />
<path
   fill="#656c24"
   opacity="1"
   stroke="none"
   d="m 649.68148,545.86143 c -0.18597,-0.22223 -0.3894,-0.43384 -0.59278,-0.64551 0.14692,0.12677 0.29377,0.2536 0.49585,0.53479 0.0552,0.15448 0.0794,0.12134 0.0969,0.11072 z"
   id="path109" />
<path
   fill="#8f9a1b"
   opacity="1"
   stroke="none"
   d="m 754.84243,499.54918 c -0.3548,-0.27784 -0.50855,-0.82862 -0.91083,-1.52668 2.23206,-10.21099 2.2309,-10.13134 12.78595,-9.97387 4.98938,0.0745 9.98962,-0.12201 14.9751,-0.38355 3.94134,-0.20691 4.44006,1.7096 3.6687,4.96607 -1.22687,5.17907 -4.88208,7.45746 -9.85077,8.28308 2.09302,-1.49036 4.45923,-2.72498 6.18042,-4.56348 1.09522,-1.16992 1.8869,-3.37237 1.57788,-4.85376 -0.21753,-1.04242 -2.54291,-2.37573 -3.88013,-2.32568 -5.42913,0.20324 -10.87768,0.6466 -16.24646,1.47314 -4.71374,0.72571 -6.64703,4.57428 -8.29986,8.90473 z"
   id="path110" />
<path
   fill="#8f9a1b"
   opacity="1"
   stroke="none"
   d="m 760.93313,442.10643 c 0.34686,-0.68628 0.62127,-0.92139 1.06329,-1.22486 -0.12183,5.45325 -0.36346,10.97797 -0.71997,16.49524 -0.18677,2.88947 -0.57514,5.76593 -0.92511,9.15918 -0.1673,0.0264 -1.07434,0.16968 -2.73822,0.43244 1.11273,-8.36365 2.18017,-16.38721 3.32001,-24.862 z"
   id="path111" />
<path
   fill="#8f9a1b"
   opacity="1"
   stroke="none"
   d="m 748.98519,509.79197 c 0.48352,0.0289 1.30798,0.2887 2.32294,0.75659 -0.1402,2.15497 -0.33643,4.13636 -0.82514,6.04267 -2.00049,7.80475 -4.09002,15.58667 -6.14679,23.37695 -0.46527,-0.10571 -0.93054,-0.21148 -1.39575,-0.3172 1.3631,-5.7171 2.80609,-11.41669 4.06232,-17.15716 0.90356,-4.12879 1.55792,-8.31202 1.98242,-12.70185 z"
   id="path112" />
<path
   fill="#8f9a1b"
   opacity="1"
   stroke="none"
   d="m 762.12093,438.52757 c -0.27527,-0.49066 -0.41681,-1.26782 -0.50683,-2.34454 0.2478,0.48626 0.44421,1.27215 0.50683,2.34454 z"
   id="path113" />
</svg>
